<?xml version="1.0" encoding="utf-8"?>
<!-- Generator: Adobe Illustrator 25.2.1, SVG Export Plug-In . SVG Version: 6.00 Build 0)  -->
<svg version="1.1" id="Camada_1" xmlns="http://www.w3.org/2000/svg" xmlns:xlink="http://www.w3.org/1999/xlink" x="0px" y="0px"
	 viewBox="0 0 48 48" style="enable-background:new 0 0 48 48;" xml:space="preserve">
<style type="text/css">
	.st0{fill-rule:evenodd;clip-rule:evenodd;fill:url(#SVGID_1_);}
	.st1{fill:#FFFFFF;}
</style>
<g transform="translate(0 -1004.362)">
	<linearGradient id="SVGID_1_" gradientUnits="userSpaceOnUse" x1="0" y1="1028.3621" x2="48" y2="1028.3621">
		<stop  offset="0" style="stop-color:#5F95D4"/>
		<stop  offset="1" style="stop-color:#8E73DF"/>
	</linearGradient>
	<circle class="st0" cx="24" cy="1028.4" r="24"/>
	<path class="st1" d="M14.2,1019.4c-0.2,0-0.3,0.1-0.4,0.2l-4.7,8.2c-0.1,0.2-0.1,0.5,0.2,0.7l3.1,1.8c0.2,0.1,0.5,0.1,0.7-0.2
		l1.1-2l0.8,0.5l0.9,0.5c0,1.2,0.5,2.3,1.3,3.1c-0.2,0.5-0.3,1,0,1.5c0.3,0.5,0.9,0.7,1.4,0.7c0,0.3,0,0.6,0.1,0.9
		c0.4,0.7,1.3,0.9,2,0.6c0,0.2,0,0.4,0.1,0.6c0.4,0.7,1.4,1,2.1,0.6l1.1-0.6l1.1,0.6c0.7,0.4,1.7,0.2,2.1-0.6
		c0.1-0.2,0.1-0.4,0.1-0.6c0.7,0.3,1.6,0.1,2-0.6c0.2-0.3,0.1-0.6,0.1-0.9c0.6,0,1.1-0.1,1.4-0.7c0.3-0.5,0.2-1.1-0.2-1.6
		c0.3-0.1,0.5-0.3,0.7-0.5c0,0,0-0.1,0-0.1c0.1,0,0.1-0.1,0.2-0.2c0.4-0.7,0.6-1.5,0.6-2.2l0.4-0.2l0.5-0.3l0.5-0.3l0.3-0.2l1.1,2
		c0.1,0.2,0.4,0.3,0.7,0.2c0,0,0,0,0,0l3.1-1.8c0.2-0.1,0.3-0.4,0.2-0.7l-4.7-8.2c-0.1-0.2-0.3-0.3-0.5-0.2c-0.1,0-0.2,0-0.2,0.1
		l-3.1,1.8c-0.2,0.1-0.3,0.4-0.2,0.7l0.1,0.2l-0.3,0.2l-0.5,0.3L29,1023l-0.4,0.2c-0.8-0.5-1.8-0.7-2.8-0.6c-0.3,0-0.6,0.1-0.9,0.2
		c-0.3,0.1-0.6,0.2-0.8,0.4c0,0,0,0,0,0l-0.1,0.1l-0.1,0l-0.2-0.1c-0.5-0.3-1.1-0.5-1.7-0.5v0c-1-0.1-1.9,0.1-2.7,0.6l-0.9-0.5
		l-0.8-0.5l0.1-0.2c0.1-0.2,0.1-0.5-0.2-0.7l-3.1-1.8C14.4,1019.4,14.3,1019.4,14.2,1019.4z M14.4,1020.6l2.2,1.3l-4.2,7.4l-2.2-1.3
		L14.4,1020.6z M33.6,1020.6l4.2,7.4l-2.2,1.3l-4.2-7.4L33.6,1020.6z M30.9,1023.1l2.5,4.3l-0.3,0.2l-0.5,0.3l-0.5,0.3l0,0
		c-0.1-0.4-0.2-0.7-0.4-1.1c0,0,0,0,0,0c0,0,0,0,0,0c0,0,0,0,0,0l-1.2-2.1c-0.2-0.4-0.5-0.7-0.8-1l0,0l0.5-0.3l0.5-0.3
		C30.6,1023.2,30.9,1023.1,30.9,1023.1z M17.1,1023.1l0.8,0.5l0.5,0.3c-0.3,0.3-0.6,0.6-0.8,1l-1.2,2.1c-0.2,0.4-0.4,0.8-0.5,1.2
		l-0.6-0.3l-0.8-0.5L17.1,1023.1L17.1,1023.1z M26.7,1023.6c0.7,0,1.3,0.3,1.8,0.7c0.4,0.3,0.7,0.6,0.9,1l1.2,2.1
		c0.4,0.8,0.6,1.6,0.4,2.4c-0.1-0.1-0.2-0.2-0.3-0.2l-4.1-2.4c0-0.3,0-0.6-0.2-0.9c0,0,0-0.1,0-0.1v0c0,0,0,0,0,0c0,0,0,0,0,0
		c0-0.1-0.1-0.2-0.2-0.2c-0.1-0.1-0.2-0.2-0.2-0.2h0c-0.5-0.4-1.3-0.4-1.9-0.1c0,0,0,0,0,0l0,0l-2.2,1.3c0,0-0.1,0-0.1,0.1l0,0
		c-0.5,0.3-1.1,0.1-1.6-0.3l1.3-0.8l1.4-0.8c0,0,0,0,0,0l0,0l1.4-0.8c0,0,0,0,0,0l0.4-0.3C25.3,1023.7,26,1023.6,26.7,1023.6
		L26.7,1023.6z M21.3,1023.6c0.5,0,1.1,0.1,1.7,0.3l-0.6,0.4c0,0,0,0,0,0l-1.4,0.8l-1.9,1.1c-0.2,0.1-0.3,0.4-0.2,0.7
		c0.7,1.2,2.2,1.7,3.3,1l2.2-1.3c0,0,0,0,0,0l0.1-0.1l0,0c0.1-0.1,0.2-0.1,0.3-0.1c0.2,0,0.4,0,0.5,0.1c0.1,0,0.1,0.1,0.1,0.2
		c-0.3,0-0.5,0.3-0.4,0.6c0,0.2,0.1,0.3,0.3,0.4l0.5,0.3c0,0,0,0,0,0c0,0,0.1,0,0.1,0l4.4,2.5c0.3,0.2,0.3,0.5,0.2,0.7
		c-0.2,0.3-0.5,0.3-0.7,0.2l-4.9-2.8l-0.5-0.3c-0.2-0.1-0.5-0.1-0.7,0.2c-0.1,0.2-0.1,0.5,0.2,0.7c0,0,0,0,0,0l0.5,0.3l0.3,0.2
		l4.6,2.6c0,0,0,0,0,0l0.5,0.3c0.3,0.2,0.3,0.5,0.2,0.7c-0.2,0.3-0.5,0.4-0.7,0.2l-0.5-0.3l-4.9-2.8l-0.5-0.3
		c-0.2-0.1-0.5,0-0.7,0.2c-0.1,0.2,0,0.5,0.2,0.7l0.5,0.3l4.9,2.8h0c0.3,0.2,0.3,0.5,0.2,0.7c-0.2,0.3-0.5,0.4-0.7,0.2l-1-0.6
		l-0.9-0.6l-4.4-2.6c-0.2-0.1-0.5-0.1-0.7,0.2c-0.1,0.2-0.1,0.5,0.2,0.7c0,0,0,0,0,0l1,0.6l4.3,2.5h0c0.3,0.2,0.3,0.5,0.2,0.7
		c-0.2,0.3-0.5,0.3-0.7,0.2l-5.1-2.9h0c0,0,0,0,0,0l-0.3-0.2l-1.6-0.9c-0.1-0.1-0.2-0.1-0.3-0.2c-0.1-0.1-0.2-0.2-0.3-0.2
		c-1.2-1.1-1.5-2.9-0.7-4.3l1.2-2.1C19.2,1024.3,20.2,1023.7,21.3,1023.6L21.3,1023.6z M11.9,1026.9c-0.2,0-0.4,0.1-0.5,0.3
		c-0.2,0.3-0.1,0.6,0.2,0.8c0.3,0.2,0.6,0.1,0.8-0.2c0.2-0.3,0.1-0.6-0.2-0.8C12.1,1026.9,12,1026.9,11.9,1026.9z M36.1,1026.9
		c-0.1,0-0.2,0-0.3,0.1c-0.3,0.2-0.4,0.5-0.2,0.8c0.2,0.3,0.5,0.4,0.8,0.2c0.3-0.2,0.4-0.5,0.2-0.8
		C36.5,1027,36.3,1026.9,36.1,1026.9z M18,1033C18.1,1033,18.1,1033.1,18,1033l0.8,0.5c0,0,0,0-0.1,0c-0.3,0.2-0.6,0.1-0.7-0.2
		C18,1033.2,18,1033.1,18,1033z M19.9,1034.1l1.1,0.6l-0.6,0.3c-0.3,0.2-0.6,0.1-0.7-0.2C19.5,1034.6,19.6,1034.3,19.9,1034.1
		C19.8,1034.1,19.9,1034.1,19.9,1034.1z M21.9,1035.3l1.1,0.6l-0.6,0.3c-0.3,0.2-0.6,0.1-0.7-0.2
		C21.5,1035.8,21.6,1035.5,21.9,1035.3C21.9,1035.3,21.9,1035.3,21.9,1035.3z"/>
</g>
</svg>
