<?xml version="1.0" encoding="utf-8"?>
<!-- Generator: Adobe Illustrator 25.2.1, SVG Export Plug-In . SVG Version: 6.00 Build 0)  -->
<svg version="1.1" id="Camada_1" xmlns="http://www.w3.org/2000/svg" xmlns:xlink="http://www.w3.org/1999/xlink" x="0px" y="0px"
	 viewBox="0 0 48 48" style="enable-background:new 0 0 48 48;" xml:space="preserve">
<style type="text/css">
	.st0{fill-rule:evenodd;clip-rule:evenodd;fill:url(#SVGID_1_);}
	.st1{fill-rule:evenodd;clip-rule:evenodd;fill:#FFFFFF;}
</style>
<g transform="translate(0 -1004.362)">
	<linearGradient id="SVGID_1_" gradientUnits="userSpaceOnUse" x1="-6.034704e-04" y1="1028.3623" x2="47.9994" y2="1028.3623">
		<stop  offset="0" style="stop-color:#5F95D4"/>
		<stop  offset="1" style="stop-color:#8E73DF"/>
	</linearGradient>
	<circle class="st0" cx="24" cy="1028.4" r="24"/>
	<path class="st1" d="M10.5,1013.3c-0.3,0-0.5,0.2-0.5,0.5v26.9c0,0.2,0,0.4,0.1,0.5c0.1,0.1,0.3,0.2,0.5,0.1h26.9
		c0.3,0,0.5-0.2,0.5-0.5c0-0.3-0.2-0.5-0.5-0.5c0,0,0,0,0,0H11v-26.5C11,1013.6,10.8,1013.3,10.5,1013.3
		C10.5,1013.3,10.5,1013.3,10.5,1013.3z M36.5,1019.4c-0.8,0-1.5,0.7-1.5,1.5c0,0.3,0.1,0.5,0.2,0.7l-7.1,7.9
		c-0.2-0.1-0.4-0.1-0.6-0.1c-0.2,0-0.4,0.1-0.6,0.2l-3-3c0.1-0.2,0.2-0.4,0.2-0.6c0-0.8-0.7-1.5-1.5-1.5c-0.8,0-1.5,0.7-1.5,1.5
		c0,0.2,0,0.4,0.1,0.6l-6.9,6.1c-0.2-0.1-0.5-0.2-0.7-0.2c-0.8,0-1.5,0.7-1.5,1.5s0.7,1.5,1.5,1.5c0.8,0,1.5-0.7,1.5-1.5
		c0-0.2,0-0.4-0.1-0.6l6.9-6.1c0.2,0.1,0.5,0.2,0.7,0.2c0.2,0,0.4-0.1,0.6-0.2l3,3c-0.1,0.2-0.2,0.4-0.2,0.6c0,0.8,0.7,1.5,1.5,1.5
		s1.5-0.7,1.5-1.5c0-0.3-0.1-0.5-0.2-0.7l7.1-7.9c0.2,0.1,0.4,0.1,0.6,0.1c0.8,0,1.5-0.7,1.5-1.5S37.3,1019.4,36.5,1019.4z
		 M36.5,1020.4c0.3,0,0.5,0.2,0.5,0.5s-0.2,0.5-0.5,0.5c-0.3,0-0.5-0.2-0.5-0.5S36.2,1020.4,36.5,1020.4z M22.5,1025.4
		c0.3,0,0.5,0.2,0.5,0.5s-0.2,0.5-0.5,0.5c-0.1,0-0.2-0.1-0.3-0.1c0,0,0,0-0.1-0.1c-0.1-0.1-0.1-0.2-0.1-0.3
		C22,1025.6,22.2,1025.4,22.5,1025.4z M27.5,1030.4c0.3,0,0.5,0.2,0.5,0.5s-0.2,0.5-0.5,0.5s-0.5-0.2-0.5-0.5
		S27.2,1030.4,27.5,1030.4z M13.5,1033.4c0.1,0,0.3,0.1,0.4,0.1c0.1,0.1,0.1,0.2,0.1,0.4c0,0.3-0.2,0.5-0.5,0.5
		c-0.3,0-0.5-0.2-0.5-0.5S13.2,1033.4,13.5,1033.4z"/>
</g>
</svg>
