<?xml version="1.0" encoding="utf-8"?>
<!-- Generator: Adobe Illustrator 25.2.1, SVG Export Plug-In . SVG Version: 6.00 Build 0)  -->
<svg version="1.1" id="Camada_1" xmlns="http://www.w3.org/2000/svg" xmlns:xlink="http://www.w3.org/1999/xlink" x="0px" y="0px"
	 viewBox="0 0 48 48" style="enable-background:new 0 0 48 48;" xml:space="preserve">
<style type="text/css">
	.st0{fill-rule:evenodd;clip-rule:evenodd;fill:url(#SVGID_1_);}
	.st1{fill-rule:evenodd;clip-rule:evenodd;fill:#FFFFFF;}
</style>
<g transform="translate(0 -1004.362)">
	<linearGradient id="SVGID_1_" gradientUnits="userSpaceOnUse" x1="0" y1="1028.3621" x2="48" y2="1028.3621">
		<stop  offset="0" style="stop-color:#5F95D4"/>
		<stop  offset="1" style="stop-color:#8E73DF"/>
	</linearGradient>
	<circle class="st0" cx="24" cy="1028.4" r="24"/>
	<path class="st1" d="M37.5,1014.4C37.5,1014.4,37.4,1014.4,37.5,1014.4c-2.8,0-5.4,0.6-7.7,1.6c0,0,0,0,0,0c0,0,0,0-0.1,0
		c0,0-0.1,0-0.1,0.1c-0.2,0.1-0.4,0.2-0.6,0.3c0,0,0,0,0,0c0,0,0,0-0.1,0c-0.1,0.1-0.2,0.1-0.2,0.1c-3.3,1.7-6,4.1-8.2,6.8
		c-0.4-0.2-0.9-0.3-1.3-0.4v0c-1.7-0.2-3.5,0.4-5.2,1.6c-2.3,1.6-4.4,4.2-5.8,7.6c-0.1,0.3,0,0.5,0.3,0.7c0.2,0.1,0.4,0,0.5-0.1
		c2.1-1.6,3.7-2.5,4.8-2.7c0.6-0.1,1,0,1.3,0.1c0.3,0.1,0.6,0.4,0.8,0.8c-0.1,0.1-0.1,0.3-0.2,0.4c-0.1,0.2,0,0.4,0.1,0.5l1.1,1.1
		c-0.9,1.4-1.9,3-2.9,4.8c0,0,0,0,0,0c0,0,0,0,0,0c0,0,0,0,0,0c0,0,0,0,0,0c0,0,0,0,0,0c0,0,0,0,0,0c0,0,0,0,0,0c0,0,0,0,0,0
		c0,0,0,0,0,0c0,0,0,0,0,0c0,0,0,0,0,0c0,0,0,0,0,0.1c0,0,0,0,0,0c0,0,0,0,0,0c0,0,0,0,0,0c0,0,0,0,0,0c0,0,0,0,0,0c0,0,0,0,0,0
		c0,0,0,0,0,0c0,0,0,0,0,0c0,0,0,0,0,0c0,0,0,0,0,0c0,0,0,0,0,0c0,0,0,0,0,0c0,0,0,0,0,0c0,0,0,0,0,0c0,0,0,0,0,0c0,0,0,0,0,0
		c0,0,0,0,0,0c0,0,0,0,0,0c0,0,0,0,0,0c0,0,0,0,0,0c0,0,0,0,0,0c0,0,0,0,0,0c0,0,0,0,0,0c0,0,0,0,0,0c0,0,0,0,0,0c0,0,0,0,0,0
		c0,0,0.1,0,0.1,0c0,0,0,0,0,0c0,0,0,0,0,0c0,0,0,0,0.1,0c0,0,0,0,0,0c1.8-1,3.4-2,4.8-2.9l1,1c0.1,0.1,0.4,0.2,0.5,0.1
		c0.1-0.1,0.3-0.1,0.4-0.2c0.8,0.5,1.1,1.1,0.9,2.2c-0.2,1.1-1,2.7-2.6,4.8c-0.2,0.2-0.1,0.5,0.1,0.7c0.1,0.1,0.3,0.1,0.5,0.1
		c3.3-1.4,6-3.5,7.6-5.8c1.5-2.2,2.1-4.5,1.2-6.6c2.7-2.2,5.1-4.9,6.8-8.1c0.1-0.1,0.1-0.2,0.2-0.3c0.2-0.3,0.3-0.5,0.4-0.8
		c0,0,0-0.1,0-0.1c0,0,0,0,0,0c0,0,0,0,0-0.1c0,0,0-0.1,0-0.1c1-2.3,1.5-4.9,1.5-7.7C38,1014.6,37.8,1014.4,37.5,1014.4
		C37.5,1014.4,37.5,1014.4,37.5,1014.4C37.5,1014.4,37.5,1014.4,37.5,1014.4C37.5,1014.4,37.5,1014.4,37.5,1014.4L37.5,1014.4z
		 M36.9,1015.4c-0.1,2.2-0.5,4.2-1.2,6.1l-4.9-4.9C32.8,1015.9,34.8,1015.5,36.9,1015.4z M29.8,1017l5.6,5.6c0,0.1-0.1,0.2-0.1,0.3
		c0,0,0,0,0,0c0,0,0,0,0,0.1c-0.1,0.2-0.2,0.3-0.3,0.5c-0.1,0.2-0.2,0.4-0.3,0.5c0,0,0,0,0,0.1c-3.2,5.5-8.7,9.5-13.8,11.7l-0.7-0.7
		c0.8-0.6,1.6-1.2,2.3-1.8c1.9-1.7,2.9-3.5,2.7-5.5c0,0,0-0.1,0-0.1l0,0c0-0.1-0.1-0.2-0.2-0.3l0,0c-0.1,0-0.1-0.1-0.2-0.1v0
		c-2.1-0.2-3.9,0.8-5.5,2.7c-0.6,0.6-1.2,1.4-1.8,2.3l-0.7-0.7c2.2-5.1,6.1-10.5,11.7-13.7c0,0,0,0,0.1,0
		C28.7,1017.6,29.4,1017.3,29.8,1017z M28.5,1021.4c-0.6,0-1.3,0.2-1.8,0.7c-1,1-1,2.5,0,3.5c1,1,2.5,1,3.5,0c1-1,1-2.5,0-3.5
		C29.8,1021.6,29.2,1021.4,28.5,1021.4z M28.5,1022.4c0.4,0,0.8,0.1,1,0.4c0.6,0.6,0.6,1.5,0,2.1c-0.6,0.6-1.5,0.6-2.1,0
		c-0.6-0.6-0.6-1.5,0-2.1C27.8,1022.5,28.2,1022.4,28.5,1022.4L28.5,1022.4z M18.1,1024c0.5,0,1.1,0.2,1.6,0.3
		c-0.2,0.2-0.3,0.5-0.5,0.7c0,0,0,0,0,0.1c-0.4,0.6-0.8,1.1-1.1,1.7c-0.3,0.5-0.6,1-0.9,1.5c0,0.1-0.1,0.2-0.1,0.3
		c-0.3,0.5-0.5,1-0.8,1.5c-0.3-0.3-0.5-0.6-0.8-0.8c-0.6-0.3-1.2-0.3-2-0.2c-1,0.2-2.1,0.8-3.4,1.6c1.3-2.2,2.8-4.2,4.4-5.3
		c1-0.7,2.1-1.2,3.1-1.4C17.7,1024,17.9,1024,18.1,1024z M24,1028.3c0,1.4-0.7,2.8-2.3,4.2c-1.4,1.3-3.6,2.6-6,4.1
		c1.5-2.5,2.8-4.6,4.1-6C21.3,1029,22.6,1028.3,24,1028.3z M28,1032.7c0.5,1.6,0.2,3.4-1.1,5.2c-1.1,1.6-3.1,3.1-5.3,4.4
		c0.8-1.3,1.4-2.4,1.6-3.4c0.2-1.1-0.3-2-1-2.8c0.5-0.2,1-0.5,1.6-0.8c0,0,0.1,0,0.1,0c0.5-0.2,0.9-0.5,1.4-0.8
		C26.2,1034,27.2,1033.4,28,1032.7z M14.8,1035.2l-3.9,3.9l0.5,0.5l2.1-2.1C13.9,1036.7,14.4,1035.9,14.8,1035.2z M17.2,1037.6
		c-0.7,0.4-1.5,0.9-2.3,1.4l-2.5,2.5l0.5,0.5L17.2,1037.6z M13.3,1038.5l-2.9,2.9l0.5,0.5l2.9-2.9c0,0,0,0,0,0c0,0,0,0,0,0
		c0,0,0,0,0,0l0,0c0,0,0,0-0.1,0c0,0,0,0-0.1,0c0,0,0,0,0,0c0,0,0,0,0,0c0,0,0,0,0,0c0,0,0,0,0,0c0,0,0,0,0,0c0,0,0,0,0,0
		c0,0,0,0,0,0c0,0,0,0,0,0c0,0,0,0,0,0c0,0,0,0,0,0c0,0,0,0,0-0.1C13.4,1038.6,13.4,1038.6,13.3,1038.5
		C13.3,1038.6,13.3,1038.6,13.3,1038.5L13.3,1038.5z M10.4,1039.5L10,1040l0.5,0.5l0.5-0.5L10.4,1039.5z M10,1041.9l-0.5,0.5
		l0.5,0.5l0.5-0.5L10,1041.9z M11.9,1041.9l-0.5,0.5l0.5,0.5l0.5-0.5L11.9,1041.9z"/>
</g>
</svg>
