<svg width="30" height="21" viewBox="0 0 30 21" fill="none" xmlns="http://www.w3.org/2000/svg">
<path d="M29.9 0.7C29.9 0.6 29.8 0.6 29.8 0.6C29.8 0.5 29.7 0.5 29.7 0.4L29.6 0.3C29.5 0.2 29.5 0.2 29.4 0.2C29.4 0.2 29.3 0.2 29.3 0.1C29.2 0.1 29.1 0 28.9 0H1C0.9 0 0.8 3.7998e-07 0.6 0.1C0.6 0.1 0.5 0.1 0.5 0.2C0.5 0.2 0.4 0.2 0.3 0.3L0.2 0.4C0.2 0.4 0.2 0.5 0.1 0.6C0.1 0.6 0.1 0.7 0 0.7C0 0.8 0 0.9 0 1V19.5C0 20.1 0.4 20.5 1 20.5H29C29.6 20.5 30 20.1 30 19.5V1C30 0.9 30 0.8 29.9 0.7ZM26.1 2L15 10.7L3.9 2H26.1ZM2 18.6V3.1L14.4 12.8C14.6 12.9 14.8 13 15 13C15.2 13 15.4 12.9 15.6 12.8L28 3.1V18.6H2Z" fill="white"/>
</svg>
