<svg width="49" height="49" viewBox="0 0 49 49" fill="none" xmlns="http://www.w3.org/2000/svg">
<path d="M24.5 18.375C21.07 18.375 18.375 21.07 18.375 24.5C18.375 27.93 21.07 30.625 24.5 30.625C27.93 30.625 30.625 27.93 30.625 24.5C30.625 21.07 27.93 18.375 24.5 18.375ZM48.755 12.495C48.755 10.535 48.51 8.82 47.775 6.86C46.795 4.165 44.59 2.205 42.14 1.225C40.425 0.49 38.465 0.245 36.505 0.245C33.32 -2.37301e-07 32.585 0 24.5 0C16.415 0 15.68 -2.37301e-07 12.495 0.245C10.535 0.245 8.82 0.49 6.86 1.225C4.165 2.205 2.205 4.165 1.225 6.86C0.49 8.575 0.245 10.535 0.245 12.495C-2.37301e-07 15.68 0 16.415 0 24.5C0 32.585 -2.37301e-07 33.32 0.245 36.505C0.245 38.465 0.735 40.18 1.225 42.14C1.715 43.365 2.45 44.59 3.43 45.57C4.41 46.55 5.635 47.285 6.86 47.775C8.575 48.51 10.535 48.755 12.495 48.755C15.68 49 16.415 49 24.5 49C32.585 49 33.32 49 36.505 48.755C38.465 48.755 40.18 48.51 42.14 47.775C43.365 47.285 44.59 46.55 45.57 45.57C46.55 44.59 47.285 43.365 47.775 42.14C48.51 40.425 48.755 38.465 48.755 36.505C49 33.32 49 32.585 49 24.5C49 16.415 49 15.68 48.755 12.495ZM42.63 32.095C42.63 33.565 42.14 35.035 41.65 36.505C40.67 38.955 38.71 40.67 36.505 41.65C35.035 42.14 33.565 42.385 32.095 42.63C30.135 42.63 29.645 42.63 24.5 42.63C19.355 42.63 18.865 42.63 16.905 42.63C15.435 42.63 13.965 42.385 12.495 41.65C11.27 41.16 10.29 40.425 9.31 39.445C8.33 38.465 7.84 37.485 7.35 36.26C6.86 34.79 6.615 33.32 6.615 31.85C6.615 29.89 6.615 29.4 6.615 24.255C6.615 19.11 6.615 18.62 6.615 16.66C6.615 15.19 6.86 13.72 7.35 12.25C7.84 11.025 8.575 10.045 9.555 9.065C10.29 8.575 11.515 7.84 12.495 7.35C13.965 6.86 15.435 6.615 16.905 6.615C18.865 6.615 19.355 6.615 24.5 6.615C29.645 6.615 30.135 6.615 32.095 6.615C33.565 6.615 35.035 6.86 36.505 7.35C37.73 7.84 38.71 8.575 39.69 9.555C40.67 10.535 41.16 11.515 41.65 12.74C42.14 14.21 42.385 15.68 42.63 17.15C42.63 19.11 42.63 19.6 42.63 24.745C42.63 29.89 42.63 30.135 42.63 32.095ZM38.71 13.72C37.975 12.25 36.75 11.025 35.28 10.29C34.055 10.045 33.075 9.8 31.85 9.8C29.89 9.8 29.4 9.8 24.5 9.8C19.6 9.8 19.11 9.8 17.15 9.8C15.925 9.8 14.945 10.045 13.72 10.535C12.25 11.025 11.025 12.25 10.29 13.72C10.045 14.945 9.8 15.925 9.8 17.15C9.8 19.11 9.8 19.6 9.8 24.5C9.8 29.4 9.8 29.89 9.8 31.85C9.8 33.075 10.045 34.055 10.535 35.28C11.025 36.75 12.25 37.975 13.965 38.71C14.945 38.955 15.925 39.2 17.15 39.2C19.11 39.2 19.6 39.2 24.5 39.2C29.4 39.2 29.89 39.2 31.85 39.2C33.075 39.2 34.055 38.955 35.28 38.465C36.995 37.975 38.22 36.505 38.71 35.035C39.2 34.055 39.2 33.075 39.2 31.85C39.2 29.89 39.2 29.4 39.2 24.5C39.2 19.6 39.2 19.11 39.2 17.15C39.445 15.925 39.2 14.945 38.71 13.72ZM24.5 33.81C19.355 33.81 15.19 29.645 15.19 24.5C15.19 19.355 19.355 15.19 24.5 15.19C29.645 15.19 33.81 19.355 33.81 24.5C33.81 29.645 29.645 33.81 24.5 33.81ZM34.3 16.905C33.075 16.66 32.095 15.68 32.34 14.455C32.34 13.475 33.32 12.495 34.3 12.495C35.525 12.74 36.505 13.72 36.26 14.945C36.26 16.17 35.28 16.905 34.3 16.905Z" fill="white"/>
</svg>
