<svg width="25" height="25" viewBox="0 0 25 25" fill="none" xmlns="http://www.w3.org/2000/svg">
<path d="M23.5752 16.85L21.3752 14.65C19.9752 13.25 17.7752 13.25 16.4752 14.65C15.7752 15.35 14.5752 15.45 13.7752 14.95C12.1752 13.85 10.7752 12.45 9.67522 10.85C9.07522 9.95 9.27522 8.85 9.97522 8.15C11.2752 6.75 11.2752 4.55 9.97522 3.25L7.77522 1.05C6.37522 -0.35 4.17522 -0.35 2.77522 1.05L2.07522 1.55C-1.22478 4.85 -1.02478 11.85 5.87522 18.65C9.97522 22.75 14.1752 24.55 17.5752 24.55C19.5752 24.65 21.5752 23.85 22.9752 22.45L23.5752 21.85C24.9752 20.45 24.9752 18.25 23.5752 16.85ZM22.1752 20.45L21.5752 21.05C18.9752 23.65 13.1752 23.25 7.27522 17.25C1.37522 11.25 0.875222 5.55 3.47522 2.95L4.07522 2.35C4.67522 1.75 5.57522 1.75 6.17522 2.35L8.37522 4.55C8.97522 5.15 8.97522 6.05 8.37522 6.65C6.97522 8.05 6.77522 10.25 7.87522 11.85C9.07522 13.75 10.6752 15.35 12.5752 16.55C14.1752 17.65 16.3752 17.45 17.7752 16.05C18.3752 15.45 19.2752 15.45 19.8752 16.05L22.0752 18.25C22.7752 18.85 22.7752 19.85 22.1752 20.45Z" fill="white"/>
</svg>
