<svg width="49" height="40" viewBox="0 0 49 40" fill="none" xmlns="http://www.w3.org/2000/svg">
<path d="M49 4.96319C47.0594 5.69306 45.3614 6.17963 43.1782 6.42292C45.3614 5.20648 46.8168 3.26018 47.5446 0.827311C45.604 2.04375 43.4208 2.77361 41.2376 3.26018C37.599 -0.875699 31.2921 -1.11899 27.1683 2.77361C24.5 5.20648 23.2871 8.85579 24.2574 12.5051C16.2525 12.0185 8.97525 8.36921 3.88119 2.04375C2.91089 3.74676 2.42574 5.44977 2.42574 7.15278C2.42574 10.5588 4.12376 13.4782 6.79208 15.4245C5.09406 15.4245 3.63861 14.938 2.18317 14.2081V14.4514C2.18317 19.0738 5.57921 23.2097 10.1881 24.1829C9.21782 24.4262 8.4901 24.6695 7.5198 24.6695C6.79208 24.6695 6.30693 24.6695 5.57921 24.4262C6.79208 28.5621 10.6733 31.2382 14.797 31.2382C11.401 33.9144 7.03465 35.6174 2.42574 35.6174C1.69802 35.6174 0.727723 35.6174 0 35.3741C4.60891 38.2935 9.94555 39.9965 15.2822 39.9965C30.8069 40.2398 43.4208 27.5889 43.6634 12.0185C43.6634 11.7752 43.6634 11.7752 43.6634 11.5319C43.6634 11.0454 43.6634 10.5588 43.6634 10.3155C46.0891 8.6125 47.7871 6.90949 49 4.96319Z" fill="white"/>
</svg>
