<svg xmlns="http://www.w3.org/2000/svg" viewBox="0 0 354.09 193.86"><defs><style>.cls-1{fill:#fff;}.cls-2{fill:#777677;}</style></defs><g id="Camada_2" data-name="Camada 2"><g id="CD_Projekt_RED_logo" data-name="CD Projekt RED logo"><g id="CD_Projekt_S.A._horizontal" data-name="CD Projekt S.A. horizontal"><path class="cls-1" d="M32.82,172.73a101.17,101.17,0,0,1,8.07-8c-.56-.05-1.43-.16-2.38-.3-2,1.87-4.67,4.6-7,7.1-3,3.21-5.42,6-5.42,6s0,.08-.09.11l-7.43,2c-3.25.9-6.16.68-6.16,2.8,0,0-3.36,1.81-2.58,4.49,0,0,6.75-5.39,12.52-6.3,0,0-3.53,2.3-3.21,5.4,0,0,4.75-7.11,10.31-2.79,0,0-2.48-3.36-1.45-5.21C28.88,177.06,30.71,175,32.82,172.73ZM22.13,88.78a2.15,2.15,0,0,1-.9.17,2.49,2.49,0,0,1-2.31-1.57,1.08,1.08,0,0,1-.1-.27l-.73.24a3.32,3.32,0,0,0,4.14,2.2,3.06,3.06,0,0,0,1.09-.66,3.42,3.42,0,0,0,.83-3.61l-1.68.57a2,2,0,0,1,.18.8,1.58,1.58,0,0,1-.14.69l.77.47a3,3,0,0,1-.5.57A2.1,2.1,0,0,1,22.13,88.78Zm68-5.45L56.93,91.42v0l64.81-28L68.34,69.92,96.93,49,66.29,61h0l4.63-9.28L49,67.5l-.18-.33L79.89,0,29.37,59.8l-.32-32.6L10.51,70.78l-1-12.85L.42,91.36h0A10.48,10.48,0,0,1,3.32,90h0l.4-.11h0l.4-.08.07,0,.42,0v0c.14,0,.28,0,.41,0h.52l0,0a1.63,1.63,0,0,1,.38,0H6.1a3,3,0,0,1,.41.08l.09,0,.43.12a8.52,8.52,0,0,0,5.78,0s2.95,1.89,2.95,3.48h0s-3.87.23-3.87-1.49c0,0-5-1.75-11.88.81L14.61,99c0-.07-.78-2.79.06-3.74.27-.32.74-.44,1.47-.19.27.1.47.07.58,0,1.14-1.17-4.37-11.34-4.37-11.34a12.11,12.11,0,0,0-9.23,4,11.6,11.6,0,0,0-.85,1v0a18.91,18.91,0,0,1,4.14-4.89A14.27,14.27,0,0,1,11.6,81c.57-1.36-.15-.47,1-1.19a0,0,0,0,0,0,0A41.76,41.76,0,0,1,22.21,59q.7-.8,1.47-1.56s-1.8,3.38-1.8,5.73A40.28,40.28,0,0,1,26.16,58h0a.58.58,0,0,0-.06.11c-.46,1-3.8,8.11-3.45,10.19,0,0,0,0,0,.05l6.75-6.19,0,0c-.2.27-6.34,8.58-6.95,11.42v0l10.23-7.3h0c0,.06-1.29,1.81-1.82,2.77a3,3,0,0,0-.42,1v0l5.5-2.36s-.23.29-.62.71l-2.05,2.08-.5.53L29,74.89,29,75l-2.83,2.88L24.31,79.7h0a8.49,8.49,0,0,0-1.66,2.35c-.18.79.66,1.28.66,1.28h0A4,4,0,0,1,25,85.19a3.88,3.88,0,0,1,.31,1.54,3.78,3.78,0,0,1-1.19,2.77,4.13,4.13,0,0,1-5.53.19c.12.17,2.14,2.7,5.83.73L29,87.1l.2-.16,4.72-3.45a26,26,0,0,1,3.12,4.69h0c-2.8,2.67-7.59,7.29-12.36,12.34-2.85,3-5.69,6.19-8.11,9.19h0l1.7-8h0l.14-.66a0,0,0,0,0,0,0h0l0,0s0,0,0,0,0,0-.05,0,0,0,0,0l-.06,0s0,0,0,0a.12.12,0,0,1-.07,0s0,0-.06.06a.14.14,0,0,1-.07,0,.16.16,0,0,1-.07.07.24.24,0,0,1-.08.06.23.23,0,0,1-.07.07l-.11.09-.07.07a.52.52,0,0,0-.11.1,1.05,1.05,0,0,1-.11.07.44.44,0,0,1-.12.11s-.07.06-.09.1a.53.53,0,0,0-.13.13l-.11.08a.75.75,0,0,1-.15.16.34.34,0,0,0-.09.08l-.1.09h0l-.16.17a.63.63,0,0,0-.11.12c-.07,0-.11.1-.17.15a1.59,1.59,0,0,1-.13.13.5.5,0,0,1-.11.13l-.06.06s0,0,0,0l-.1.1-.13.15a.08.08,0,0,1,0,0l0,0a.47.47,0,0,1-.1.1.82.82,0,0,1-.17.2c0,.06-.1.11-.15.18s-.12.14-.17.2-.11.12-.16.19-.12.15-.19.22-.1.12-.16.2-.12.15-.19.24-.09.13-.15.18l-.21.29a.89.89,0,0,0-.13.18l-.27.34c0,.05-.08.1-.1.14s-.26.35-.38.53v0c-.12.17-.25.35-.36.52l-.1.17-.27.4c0,.07-.08.14-.14.21l-.24.38-.14.23a4.37,4.37,0,0,1-.25.4c0,.08-.09.16-.13.25s-.15.27-.24.4l-.14.25-.25.44c0,.08-.09.17-.13.26-.37.69-.74,1.41-1.11,2.18h0l-1.88.32c.37-1,.75-1.85,1.15-2.68l-3.07,4.31,3.07-.3c-2.62,6-4.55,13.91-4.55,25.13l2.5-1.58a26.78,26.78,0,0,0,12.53,18l0-.08a49,49,0,0,0,20.25,7.36h0c1.06.13,1.92.21,2.11.23h0c.14,0,.27,0,.4,0a51.84,51.84,0,0,0,12-.35c0,.14,0,.29,0,.44,0,2.48,1.38,4.52,3.14,4.69A99.65,99.65,0,0,0,50.47,183a3.32,3.32,0,0,1-.71,1.28,16.79,16.79,0,0,0-1.95.55h0c-.33-.33-3.18-.86-6.08.23h0l0,0a8.79,8.79,0,0,0-4.35,4.21c1.18-1,3.38-2.5,5.17-2.28-2.12,1.21-5.79,3.52-6.21,6.84,0,0,12.73-8.94,19-7.29,0,0-.91,1,1.25,4.9l1-3.59c1.13-3.48-3.23-4-5.07-4.07a.1.1,0,0,0,0,0l.56-1.48a88.33,88.33,0,0,1,6.35-13.36,1.69,1.69,0,0,0,.12-.28l-.52-.71a5.91,5.91,0,0,0,.57-.7,5.29,5.29,0,0,0,.88-2.85,9.49,9.49,0,0,0-1-3.89h0l1.63-.76c.09.21.17.4.26.59s0,.13.07.19l.15.4c0,.06,0,.13.07.2s.09.28.14.41l0,.14,9.32-2.81-2.07-1.7h0l-.09-.09,0,0h0l-35.24-32.1,0,0v0c9.8,4.77,21.23,10.31,40.61,19.29,19.1,8.81,31.2,13.93,37.44,16.49l.15.07h0l2.34,1,2.65,1c.11-.06.24-.09.34-.15L46.08,113.75ZM40.8,98.39h0l-10.62,8.09L37.8,89.71h0v0a46.43,46.43,0,0,1,3,8.7Zm37.93,57.82.27,1.28h0l12.41,7.32,3.14,1.82-1.71-4.42c10.24,3,18.58,3.19,24.13.58h0C107.3,165.65,83.35,157.58,78.73,156.21Z"/><path class="cls-2" d="M11.88,91.9c0,1.72,3.87,1.49,3.87,1.49,0-1.57-2.94-3.47-2.94-3.47a8.62,8.62,0,0,1-5.79,0,5.77,5.77,0,0,0-3.7,0A29.43,29.43,0,0,0,0,92.72C6.93,90.15,11.88,91.9,11.88,91.9ZM37.8,89.71l-7.62,16.77L40.8,98.39A46.22,46.22,0,0,0,37.8,89.71ZM117,162.77s-23.86-9-83.23-37.84l35.38,32.23h0c3.18-1.32,5.41-2.25,9.82.33l-.26-1.28C83.34,157.58,107.38,165.69,117,162.77ZM59.56,160.5a9.49,9.49,0,0,1,1,3.89,5.29,5.29,0,0,1-.88,2.85,5.91,5.91,0,0,1-.57.7l1.06,1.45a6.18,6.18,0,0,0,2.18-5,11.06,11.06,0,0,0-1.14-4.65Zm-21.3,3.86c1.68.27,3.22.41,3.22.41l.07-.89s-1.5-.13-3.14-.4ZM37.05,88.18a26,26,0,0,0-3.12-4.69l-9.48,7c-3.83,2-5.85-.75-5.85-.75a4.1,4.1,0,0,0,2.67,1,4,4,0,0,0,4.07-3.93A3.68,3.68,0,0,0,25,85.2a4,4,0,0,0-1.73-1.87h0s-.84-.49-.66-1.28a8.49,8.49,0,0,1,1.66-2.35h0L29,75l.08-.08,4.22-4.3,2.05-2.08c.39-.42.61-.7.61-.7l-5.5,2.35s-.11-.06.42-1,1.83-2.78,1.83-2.78l-10.24,7.3c.6-2.86,7-11.45,7-11.45l-6.75,6.18C22.21,66.22,26.16,58,26.16,58a38.09,38.09,0,0,0-4.28,5.17c0-2.36,1.8-5.74,1.8-5.74a41.17,41.17,0,0,0-11,22.29c-1.19.74-.46-.16-1,1.2C6.1,82.51,3,87.42,2.26,88.64c4.47-5.51,10.09-5,10.09-5s6.71,12.4,3.79,11.4S14.61,99,14.61,99l-5.5-2.37c.91,1.79,2.7,6,1.67,10.41a32.93,32.93,0,0,0-3.24,6.39l1.88-.32c.36-.78.73-1.5,1.09-2.19a1.35,1.35,0,0,0,.15-.26c.08-.14.16-.28.25-.42s.09-.18.14-.27.14-.26.23-.4a2.18,2.18,0,0,0,.14-.25c.09-.13.16-.27.25-.39a1.4,1.4,0,0,1,.14-.22l.24-.4a1.28,1.28,0,0,1,.14-.21,4,4,0,0,1,.27-.4,1,1,0,0,1,.1-.17c.11-.17.24-.35.36-.51,0,0,0,0,0,0l.36-.51.12-.15c.08-.12.17-.23.26-.35a1,1,0,0,1,.14-.17c.06-.1.13-.2.2-.3a.52.52,0,0,0,.15-.18l.2-.24a1,1,0,0,0,.16-.19l.19-.23.15-.18.18-.21.15-.17a1.4,1.4,0,0,0,.16-.2c.06,0,.11-.11.16-.16l.17-.18a1.74,1.74,0,0,1,.13-.15l.17-.18a.6.6,0,0,0,.13-.14,1.29,1.29,0,0,1,.17-.15l.11-.12.16-.17c.05,0,.07-.07.11-.09l.24-.25.11-.08a.53.53,0,0,1,.13-.13s.07-.07.09-.1a.44.44,0,0,0,.12-.11,1.05,1.05,0,0,0,.11-.07.52.52,0,0,1,.11-.1l.07-.07.11-.09a.23.23,0,0,0,.07-.07.24.24,0,0,0,.08-.06.16.16,0,0,0,.07-.07.14.14,0,0,0,.07,0s.05,0,.06-.06a.12.12,0,0,0,.07,0s0,0,0,0l.06,0s0,0,0,0,0,0,.05,0,0,0,0,0l0,0h0a0,0,0,0,1,0,0l-.14.66h0l-1.7,8C23,101.71,32.57,92.43,37.05,88.18Zm-19-.83.74-.24a1.08,1.08,0,0,0,.1.27A2.49,2.49,0,0,0,21.23,89a2.15,2.15,0,0,0,.9-.17,2.5,2.5,0,0,0,1.15-1l-.77-.46a1.62,1.62,0,0,0,.14-.7,2,2,0,0,0-.18-.8l1.68-.57a3.21,3.21,0,1,1-6.07,2.07Z"/><path class="cls-1" d="M173.42,100.78a21,21,0,0,0-5-.47h-4.78v27l.5-.35,3.94-2.77.14-.11v-7.64h1.5a9.87,9.87,0,0,0,6.68-2.18,7.47,7.47,0,0,0,2.51-5.91,7.81,7.81,0,0,0-2.35-5.78A7,7,0,0,0,173.42,100.78Zm-4,11.79h-1.25v-8.29h1.41c3.61,0,5.43,1.34,5.43,4C175,111.14,173.15,112.57,169.43,112.57Zm29.41,3.24a7.42,7.42,0,0,0,3.9-2.56,7.72,7.72,0,0,0,1.65-5,7.5,7.5,0,0,0-2.64-6c-1.58-1.34-4.16-2-7.68-2h-4.92v27l.5-.35,3.94-2.77.14-.11v-7.73H194l7.35,10.54.18.26.27-.19,3.15-2.28.27-.19-.19-.26Zm-5.11-3.24v-.27h0v-7.63h0v-.39h1.41c3.62,0,5.44,1.34,5.44,4,0,2.85-1.87,4.28-5.59,4.28ZM130.2,101.12a19.89,19.89,0,0,0-6.31-.81h-5.78V127h5.72a20.33,20.33,0,0,0,6.22-.74,13,13,0,0,0,8.85-12.62,12.88,12.88,0,0,0-4.14-9.91A12.24,12.24,0,0,0,130.2,101.12Zm1.29,19.23a8.52,8.52,0,0,1-3.07,1.79,14,14,0,0,1-4.28.55h-1.46v-18h1.46c3.24,0,5.73.77,7.37,2.29a9.48,9.48,0,0,1,0,13.39Zm-30.06-16.18a9.68,9.68,0,0,1,5,1.44l.28.16.16-.28,1.91-3.29.16-.28-.28-.17a13.84,13.84,0,0,0-6.94-1.93A13.47,13.47,0,0,0,91,104.7a13.79,13.79,0,0,0-3.37,9.1,13.67,13.67,0,0,0,13.8,13.71,14.51,14.51,0,0,0,7.24-2l.16-.1v-.26l0-.08-1.92-3.32-.17-.29-.29.19a10.63,10.63,0,0,1-1.54.82,8,8,0,0,1-3.41.65,8.86,8.86,0,0,1-6.55-2.72,9.24,9.24,0,0,1-2.68-6.69A9.45,9.45,0,0,1,94.89,107,8.7,8.7,0,0,1,101.43,104.17Zm222.71.5h6v22.66l.52-.35,3.93-2.77.14-.11V104.67h6v-4.36H324.14Zm-96.85-4.84a13.65,13.65,0,0,0-9.88,4,13.1,13.1,0,0,0-4.14,9.68,13.23,13.23,0,0,0,4.53,10.38,14.1,14.1,0,0,0,19.25-.46,13.17,13.17,0,0,0,4.12-9.77,14,14,0,0,0-13.88-13.88Zm6.54,20.6a9.14,9.14,0,0,1-6.71,2.73,9,9,0,0,1-6.42-2.7,9.47,9.47,0,0,1,6.54-16.29,8.89,8.89,0,0,1,6.61,2.75,9.21,9.21,0,0,1,2.7,6.75A9.39,9.39,0,0,1,233.83,120.43Zm77.79-20L302,110.25V100l-.51.37-3.93,2.76-.14.1v24.08L298,127l3.93-2.77.13-.11v-8l.47-.46,9.16,11.32.18.23.25-.16,3.37-2.28.29-.2-.23-.28-9.75-11.76,11.57-11.58.55-.57h-6.17Zm-56.34,2.75-.14.1V117.5a10.47,10.47,0,0,1-.68,4.5,2.13,2.13,0,0,1-2.13,1.16,4.53,4.53,0,0,1-2.49-.89l-.29-.19-.16.29-1.95,3.36-.15.28.26.17a9.31,9.31,0,0,0,4.78,1.33,6.89,6.89,0,0,0,5.48-2.43,7.4,7.4,0,0,0,1.5-3,18.22,18.22,0,0,0,.43-4.58V100l-.52.37Zm28.15,1.5.1-.09,3.62-3.7.54-.57H272.22V127h11.3l.1-.09,3.53-3.7.53-.55H276.8V114.4h3.35l.09-.1,3.67-3.69.55-.56H276.8v-5.38Z"/><path class="cls-1" d="M349.42,109.16a4.67,4.67,0,1,1,4.67-4.67A4.68,4.68,0,0,1,349.42,109.16Zm0-8.64a4,4,0,1,0,4,4A3.95,3.95,0,0,0,349.42,100.52Zm1.28,6.66-1.39-2.12h-.92v2.12h-.75v-5.35h2.18a1.66,1.66,0,0,1,1.74,1.63,1.57,1.57,0,0,1-1.37,1.58l1.44,2.14Zm-.88-4.69h-1.43v1.89h1.43a.95.95,0,1,0,0-1.89Z"/></g></g></g></svg>