<svg width="282" height="154" viewBox="0 0 282 154" fill="none" xmlns="http://www.w3.org/2000/svg">
<path d="M26.0758 137.236C28.0922 134.999 30.2328 132.877 32.4875 130.88C32.0425 130.84 31.3513 130.753 30.5965 130.641C29.0075 132.127 26.8862 134.296 25.035 136.282C22.6514 138.833 20.7287 141.049 20.7287 141.049C20.7287 141.049 20.7287 141.113 20.6572 141.137L14.754 142.726C12.1718 143.441 9.85981 143.266 9.85981 144.951C9.85981 144.951 7.19025 146.389 7.80997 148.518C7.80997 148.518 13.1729 144.235 17.7572 143.512C17.7572 143.512 14.9526 145.34 15.2069 147.803C15.2069 147.803 18.9808 142.154 23.3983 145.586C23.3983 145.586 21.4279 142.917 22.2462 141.447C22.9454 140.676 24.3994 139.039 26.0758 137.236ZM17.5824 70.5367C17.3566 70.6325 17.1127 70.6786 16.8674 70.6717C16.4718 70.6711 16.0855 70.5519 15.7584 70.3296C15.4312 70.1072 15.1782 69.7919 15.0321 69.4243C14.9961 69.3567 14.9694 69.2846 14.9526 69.2098L14.3726 69.4005C14.5779 70.0679 15.0394 70.6266 15.656 70.9543C16.2726 71.2819 16.9939 71.3517 17.6619 71.1484C17.9842 71.0363 18.2792 70.8577 18.5279 70.6241C18.9017 70.2598 19.1626 69.7956 19.2796 69.287C19.3965 68.7783 19.3645 68.2468 19.1874 67.7559L17.8526 68.2087C17.9436 68.4085 17.9923 68.6249 17.9956 68.8444C18.0002 69.0331 17.9622 69.2205 17.8844 69.3926L18.4961 69.766C18.3834 69.9331 18.2499 70.0853 18.0989 70.2188C17.9476 70.3554 17.7726 70.4632 17.5824 70.5367ZM71.6092 66.2066L45.2314 72.6342L96.7237 50.3879L54.2968 55.5522L77.0118 38.931L52.668 48.4651L56.3466 41.0921L38.931 53.6295L38.7879 53.3673L63.4734 0L23.3347 47.5117L23.0805 21.6107L8.35024 56.2355L7.55572 46.026L0.333623 72.5865C1.04175 72.1104 1.81885 71.7459 2.6377 71.506L2.95551 71.4186L3.27331 71.355H3.32893H3.66262C3.77385 71.355 3.88509 71.355 3.98837 71.355H4.40152C4.50181 71.3432 4.60314 71.3432 4.70343 71.355H4.84644C4.95637 71.3686 5.06522 71.3898 5.17219 71.4186H5.2437L5.58534 71.5139C7.06933 72.049 8.69362 72.049 10.1776 71.5139C10.1776 71.5139 12.5214 73.0155 12.5214 74.2788C12.5214 74.2788 9.44666 74.4615 9.44666 73.095C9.44666 73.095 5.47411 71.7046 0.00787354 73.7385L11.6077 78.6566C11.6077 78.6009 10.988 76.4399 11.6554 75.6851C11.8699 75.4308 12.2433 75.3355 12.8233 75.5341C13.0378 75.6136 13.1967 75.5897 13.2841 75.5341C14.1899 74.6046 9.81214 66.5244 9.81214 66.5244C8.43344 66.4977 7.06512 66.7676 5.79987 67.3159C4.53462 67.8643 3.40202 68.6781 2.4788 69.7024C2.23888 69.9543 2.0134 70.2196 1.80347 70.4969C2.67092 69.0242 3.7833 67.7103 5.09274 66.6118C6.29453 65.5798 7.69921 64.8112 9.21625 64.3554C9.66912 63.2748 9.09708 63.9819 10.0108 63.4099C10.9639 57.2944 13.6086 51.5673 17.646 46.8761C18.0168 46.4524 18.4061 46.0392 18.8139 45.6367C18.8139 45.6367 17.3838 48.3221 17.3838 50.1892C18.4011 48.7278 19.5385 47.3538 20.7843 46.0816C20.7653 46.1089 20.7493 46.1382 20.7367 46.169C20.3712 46.9635 17.7175 52.6125 17.9956 54.2651C17.9956 54.2651 17.9956 54.2651 17.9956 54.3048L23.3585 49.3868C23.1996 49.6013 18.3213 56.2037 17.8367 58.4601L25.9645 52.6602C25.9645 52.7078 24.9396 54.0982 24.5185 54.861C24.3599 55.1033 24.2469 55.3726 24.1848 55.6555L28.5546 53.7804C28.5546 53.7804 28.3719 54.0108 28.062 54.3445L26.4333 55.9971L26.036 56.4182L23.0407 59.5009V59.5883L20.7923 61.8765L19.3145 63.3225C18.7718 63.8653 18.3258 64.4967 17.9956 65.1896C17.8526 65.8173 18.52 66.2066 18.52 66.2066C19.1147 66.5421 19.5855 67.0603 19.8627 67.6844C20.0274 68.0712 20.1112 68.4875 20.109 68.9079C20.1108 69.32 20.0278 69.728 19.8652 70.1066C19.7025 70.4853 19.4637 70.8264 19.1635 71.1087C18.5797 71.673 17.8073 72.0009 16.9957 72.0287C16.1842 72.0566 15.3911 71.7826 14.7699 71.2597C14.8652 71.3947 16.4701 73.4048 19.4019 71.8397L23.0407 69.2019L23.1996 69.0748L26.9497 66.3337C27.9085 67.4823 28.7397 68.7318 29.4286 70.06C27.204 72.1813 23.3983 75.8519 19.6085 79.8642C17.3441 82.2477 15.0877 84.7822 13.165 87.1658L14.5156 80.8097L14.6269 80.2853C14.6269 80.2853 14.6269 80.2853 14.5871 80.2853C14.5474 80.2853 14.5871 80.2853 14.5871 80.2853H14.5395C14.5213 80.2908 14.502 80.2908 14.4839 80.2853C14.4839 80.2853 14.4839 80.2853 14.4362 80.333C14.4179 80.3377 14.3988 80.3377 14.3806 80.333C14.3684 80.3569 14.3489 80.3764 14.325 80.3886C14.3074 80.4088 14.2857 80.425 14.2614 80.4363C14.2471 80.4586 14.2281 80.4776 14.2058 80.4919L14.1184 80.5634L14.0628 80.619C14.03 80.6412 14.0005 80.6679 13.9754 80.6984C13.9474 80.7188 13.9182 80.7374 13.888 80.7541C13.8619 80.7889 13.8296 80.8185 13.7926 80.8415C13.7926 80.8415 13.737 80.8891 13.7211 80.9209C13.6809 80.9491 13.646 80.984 13.6178 81.0242L13.5304 81.0878C13.4972 81.1357 13.457 81.1786 13.4113 81.2149C13.3838 81.2316 13.3596 81.2532 13.3398 81.2784L13.2603 81.3499L13.1332 81.485C13.1001 81.5129 13.0707 81.5449 13.0458 81.5804C12.9902 81.5804 12.9584 81.6598 12.9107 81.6995C12.8783 81.7359 12.8438 81.7704 12.8074 81.8028C12.7844 81.842 12.7549 81.8769 12.72 81.9061L12.6724 81.9538L12.5929 82.0332L12.4896 82.1524C12.4673 82.1827 12.4405 82.2095 12.4102 82.2319C12.374 82.2917 12.3284 82.3454 12.2751 82.3908C12.2751 82.4384 12.1957 82.4781 12.1559 82.5338C12.1162 82.5894 12.0606 82.645 12.0209 82.6927C11.9811 82.7403 11.9335 82.788 11.8938 82.8436C11.854 82.8992 11.7984 82.9628 11.7428 83.0184C11.6872 83.074 11.6633 83.1138 11.6157 83.1773C11.568 83.2409 11.5203 83.2965 11.4647 83.368C11.4091 83.4395 11.3932 83.4713 11.3455 83.511L11.1787 83.7414C11.1384 83.7846 11.1037 83.8326 11.0754 83.8844L10.8609 84.1546C10.8609 84.1943 10.7973 84.234 10.7814 84.2658C10.7655 84.2976 10.5749 84.5439 10.4795 84.6869C10.3842 84.822 10.2809 84.965 10.1935 85.1L10.114 85.2351L9.89953 85.5529C9.89953 85.6085 9.83597 85.6641 9.7883 85.7198L9.59762 86.0217L9.48639 86.2044C9.42595 86.3138 9.35964 86.4199 9.28776 86.5222C9.28776 86.5858 9.21625 86.6493 9.18447 86.7208C9.15269 86.7923 9.06529 86.9354 8.99379 87.0386L8.88256 87.2373L8.68393 87.5869C8.68393 87.6504 8.61242 87.7219 8.58064 87.7934C8.28667 88.3416 7.99271 88.9137 7.69874 89.5255L6.20506 89.7797C6.49903 88.9852 6.80094 88.3099 7.11874 87.6504L4.6796 91.0748L7.11874 90.8364C5.03713 95.6035 3.50372 101.888 3.50372 110.802L5.49 109.547C6.04606 112.498 7.22064 115.299 8.93647 117.764C10.6523 120.228 12.8705 122.302 15.4452 123.848V123.785C20.3079 126.904 25.8037 128.901 31.5341 129.632C32.3762 129.736 33.0595 129.799 33.2105 129.815C33.3217 129.815 33.425 129.815 33.5283 129.815C36.7064 130.092 39.9059 129.999 43.0624 129.537C43.0624 129.648 43.0624 129.767 43.0624 129.887C43.0624 131.857 44.1588 133.478 45.5572 133.613C43.4182 137.384 41.5926 141.325 40.0989 145.395C39.9888 145.772 39.7961 146.12 39.5348 146.412C39.01 146.527 38.4926 146.673 37.9855 146.849C37.7233 146.587 35.4589 146.166 33.1549 147.032C31.6431 147.703 30.4184 148.888 29.6987 150.377C30.6363 149.583 32.3842 148.391 33.8064 148.566C32.122 149.527 29.2061 151.362 28.8724 154C28.8724 154 38.9866 146.897 43.9682 148.208C43.9682 148.208 43.2451 149.003 44.9613 152.101L45.7558 149.249C46.6536 146.484 43.1895 146.071 41.7276 146.015L42.1726 144.839C43.5545 141.166 45.2422 137.616 47.2177 134.225C47.2561 134.154 47.288 134.079 47.313 134.002L46.8999 133.438C47.0648 133.264 47.2162 133.079 47.3528 132.882C47.7982 132.21 48.0409 131.424 48.0519 130.618C48.0106 129.542 47.7397 128.489 47.2574 127.527L48.5525 126.923C48.624 127.09 48.6875 127.241 48.759 127.392C48.8306 127.543 48.759 127.495 48.8147 127.543L48.9338 127.861C48.9338 127.908 48.9338 127.964 48.9895 128.02C49.0451 128.075 49.061 128.242 49.1007 128.345V128.456L56.5055 126.224L54.8609 124.873L54.7894 124.802L26.7908 99.2979C34.577 103.088 43.6583 107.489 59.0559 114.624C74.2311 121.624 83.8446 125.692 88.8024 127.726L88.9216 127.781L90.7807 128.576L92.8862 129.37C92.9736 129.322 93.0769 129.299 93.1563 129.251L36.611 90.3756L71.6092 66.2066ZM32.416 78.1719L23.9783 84.5995L30.0324 71.2756C31.0539 73.495 31.8523 75.8105 32.416 78.1878V78.1719ZM62.5518 124.111L62.7663 125.127L72.6262 130.943L75.1209 132.389L73.7623 128.878C81.8981 131.261 88.5243 131.412 92.9338 129.338C85.2509 131.611 66.2224 125.199 62.5518 124.111Z" fill="white"/>
<path d="M9.43879 73.0154C9.43879 74.382 12.5135 74.1993 12.5135 74.1993C12.5135 72.9519 10.1777 71.4423 10.1777 71.4423C8.69014 71.9727 7.06501 71.9727 5.57747 71.4423C4.62414 71.1196 3.5911 71.1196 2.63778 71.4423C1.70493 72.1179 0.823268 72.8614 0 73.6669C5.50596 71.6251 9.43879 73.0154 9.43879 73.0154ZM30.0325 71.2755L23.9783 84.5994L32.416 78.1718C31.8524 75.7996 31.054 73.4894 30.0325 71.2755ZM92.9577 129.322C92.9577 129.322 74.0007 122.172 26.8306 99.2581L54.9404 124.865C57.467 123.816 59.2387 123.078 62.7425 125.127L62.5359 124.11C66.2145 125.199 85.3146 131.642 92.9577 129.322ZM47.3211 127.519C47.8034 128.481 48.0743 129.534 48.1156 130.61C48.1045 131.416 47.8618 132.202 47.4164 132.874C47.2798 133.071 47.1284 133.256 46.9635 133.43L47.8057 134.582C48.3791 134.097 48.8334 133.486 49.1337 132.797C49.434 132.109 49.5722 131.36 49.5377 130.61C49.5092 129.327 49.2 128.066 48.632 126.915L47.3211 127.519ZM30.398 130.586C31.7328 130.8 32.9563 130.911 32.9563 130.911L33.0119 130.204C33.0119 130.204 31.8202 130.101 30.5172 129.887L30.398 130.586ZM29.4366 70.0599C28.7477 68.7317 27.9165 67.4823 26.9577 66.3336L19.4258 71.8952C16.3828 73.4842 14.7779 71.2993 14.7779 71.2993C15.3672 71.8094 16.1199 72.0913 16.8992 72.0938C17.3166 72.1012 17.7313 72.0263 18.1197 71.8733C18.5081 71.7204 18.8626 71.4924 19.1629 71.2025C19.4632 70.9125 19.7034 70.5662 19.8698 70.1834C20.0363 69.8006 20.1257 69.3887 20.1329 68.9714C20.1406 68.5301 20.0482 68.0928 19.8628 67.6922C19.5788 67.0604 19.0961 66.5387 18.4883 66.2065C18.4883 66.2065 17.8209 65.8172 17.9639 65.1895C18.2941 64.4966 18.7401 63.8652 19.2828 63.3224L23.0408 59.5882L23.1044 59.5247L26.4572 56.1083L28.086 54.4557C28.3958 54.122 28.5706 53.8995 28.5706 53.8995L24.2008 55.7666C24.2008 55.7666 24.1134 55.7189 24.5345 54.9721C24.9556 54.2253 25.9884 52.7634 25.9884 52.7634L17.8527 58.5633C18.3294 56.291 23.4142 49.4661 23.4142 49.4661L18.0513 54.3762C17.6461 52.6124 20.7844 46.0815 20.7844 46.0815C19.5322 47.348 18.3943 48.7226 17.3839 50.1892C17.3839 48.3141 18.814 45.6287 18.814 45.6287C14.1458 50.4905 11.0934 56.6756 10.0744 63.3383C9.12893 63.9262 9.70892 63.2112 9.27988 64.2917C4.84652 65.555 2.38353 69.456 1.79559 70.4253C5.34706 66.0476 9.81221 66.4528 9.81221 66.4528C9.81221 66.4528 15.1434 76.3047 12.8234 75.5102C10.5034 74.7157 11.6078 78.6565 11.6078 78.6565L7.23799 76.7735C7.961 78.1957 9.38317 81.5405 8.56483 85.0443C7.52466 86.638 6.66149 88.3404 5.99061 90.1213L7.48429 89.867C7.77031 89.2473 8.06428 88.6752 8.35031 88.127C8.39759 88.0628 8.43756 87.9935 8.46948 87.9205C8.53304 87.8092 8.59661 87.698 8.66811 87.5868C8.73962 87.4755 8.73962 87.4438 8.77934 87.3723C8.81907 87.3007 8.89057 87.1657 8.96208 87.0544C9.00347 86.9907 9.04063 86.9244 9.07331 86.8558C9.14482 86.7525 9.20043 86.6413 9.27194 86.546C9.3035 86.4844 9.34074 86.4258 9.38317 86.3712L9.57385 86.0534C9.60534 85.9942 9.6426 85.9383 9.68508 85.8865C9.75013 85.7764 9.82177 85.6702 9.8996 85.5687C9.92157 85.5212 9.94818 85.4759 9.97905 85.4336C10.0665 85.2986 10.1697 85.1556 10.2651 85.0284L10.5511 84.6232L10.6464 84.5041C10.71 84.4087 10.7815 84.3213 10.853 84.226C10.885 84.177 10.9223 84.1317 10.9642 84.0909C11.0119 84.0115 11.0675 83.932 11.1231 83.8526C11.1732 83.8146 11.214 83.7657 11.2423 83.7096L11.4012 83.5189C11.4497 83.474 11.4924 83.4233 11.5283 83.3679L11.6793 83.1852L11.7985 83.0422L11.9415 82.8753L12.0607 82.7403C12.1078 82.6913 12.1504 82.6381 12.1878 82.5814C12.2355 82.5814 12.2752 82.494 12.3149 82.4542L12.45 82.3112C12.4821 82.2696 12.5166 82.2298 12.5533 82.192L12.6883 82.049C12.7285 82.0177 12.7634 81.9802 12.7916 81.9378C12.8331 81.8942 12.8783 81.8543 12.9267 81.8186L13.0141 81.7233L13.1412 81.5882C13.1809 81.5882 13.1968 81.5326 13.2286 81.5167L13.4193 81.3181L13.5067 81.2545C13.5348 81.2143 13.5698 81.1794 13.61 81.1512C13.61 81.1512 13.6656 81.0956 13.6815 81.0718C13.7184 81.0488 13.7507 81.0192 13.7768 80.9844C13.8071 80.9677 13.8363 80.9491 13.8642 80.9288C13.8894 80.8982 13.9188 80.8715 13.9516 80.8493L14.0072 80.7937L14.0946 80.7222C14.117 80.7079 14.136 80.6889 14.1502 80.6666C14.1745 80.6553 14.1962 80.6391 14.2138 80.6189C14.2377 80.6067 14.2572 80.5872 14.2694 80.5633C14.2877 80.568 14.3068 80.568 14.325 80.5633C14.325 80.5633 14.3648 80.5633 14.3727 80.5156C14.3908 80.5211 14.4102 80.5211 14.4283 80.5156H14.476C14.476 80.5156 14.476 80.5156 14.5157 80.5156C14.5554 80.5156 14.5157 80.5156 14.5157 80.5156L14.4045 81.04L13.0538 87.3961C18.2737 80.8096 25.8772 73.4365 29.4366 70.0599ZM14.3409 69.4004L14.9289 69.2097C14.9456 69.2845 14.9724 69.3566 15.0083 69.4243C15.1496 69.8031 15.4035 70.1295 15.7359 70.3596C16.0683 70.5897 16.4632 70.7125 16.8675 70.7114C17.1127 70.7182 17.3566 70.6722 17.5825 70.5763C17.9623 70.413 18.2818 70.1353 18.4962 69.7818L17.8844 69.4163C17.9624 69.2415 18.0004 69.0515 17.9957 68.8602C17.9924 68.6407 17.9437 68.4243 17.8527 68.2245L19.1874 67.7717C19.3136 68.0925 19.3733 68.4356 19.3631 68.7803C19.3529 69.1249 19.2729 69.4638 19.128 69.7767C18.983 70.0895 18.7762 70.3697 18.5199 70.6003C18.2637 70.831 17.9633 71.0072 17.637 71.1185C17.3107 71.2298 16.9652 71.2738 16.6214 71.2478C16.2777 71.2217 15.9427 71.1263 15.6369 70.9672C15.331 70.8081 15.0606 70.5886 14.8419 70.3221C14.6233 70.0555 14.461 69.7474 14.3648 69.4163L14.3409 69.4004Z" fill="#777677"/>
<path d="M137.784 80.0706C136.48 79.7877 135.146 79.6623 133.812 79.6972H130.014V101.149L130.411 100.871L133.541 98.6701L133.653 98.5827V92.5127H134.844C136.766 92.6059 138.655 91.9895 140.152 90.7806C140.812 90.1955 141.334 89.4703 141.679 88.6581C142.024 87.8458 142.184 86.9668 142.146 86.0851C142.167 85.2324 142.012 84.3845 141.691 83.5944C141.37 82.8043 140.889 82.0888 140.279 81.4928C139.586 80.8085 138.726 80.3181 137.784 80.0706ZM134.606 89.4379H133.613V82.8514H134.733C137.601 82.8514 139.047 83.9161 139.047 86.0295C139.039 88.3018 137.57 89.4379 134.614 89.4379H134.606ZM157.973 92.0121C159.197 91.6849 160.284 90.9717 161.071 89.9782C161.96 88.8485 162.424 87.4425 162.382 86.0056C162.416 85.1041 162.245 84.2066 161.882 83.3808C161.518 82.555 160.972 81.8225 160.285 81.2386C159.029 80.1739 156.979 79.6495 154.183 79.6495H150.274V101.101L150.671 100.823L153.801 98.6225L153.913 98.5351V92.3935H154.135L159.975 100.768L160.118 100.974L160.332 100.823L162.835 99.0118L163.049 98.8608L162.899 98.6542L157.973 92.0121ZM153.913 89.4379V89.2234V83.1613V82.8514H155.033C157.909 82.8514 159.355 83.9161 159.355 86.0295C159.355 88.2938 157.869 89.43 154.914 89.43L153.913 89.4379ZM103.445 80.3408C101.82 79.8587 100.127 79.6414 98.432 79.6972H93.8397V100.903H98.3843C100.052 100.963 101.719 100.765 103.326 100.315C105.414 99.612 107.223 98.2599 108.488 96.4559C109.753 94.652 110.408 92.4908 110.358 90.288C110.408 88.8163 110.14 87.3509 109.573 85.992C109.005 84.6332 108.151 83.4129 107.068 82.4144C106.025 81.4691 104.789 80.7616 103.445 80.3408ZM104.47 95.6192C103.766 96.2594 102.935 96.744 102.031 97.0414C100.927 97.3619 99.7799 97.5093 98.6306 97.4784H97.4706V83.1772H98.6306C101.205 83.1772 103.183 83.7889 104.486 84.9966C105.895 86.4086 106.686 88.3215 106.686 90.3159C106.686 92.3102 105.895 94.2231 104.486 95.6351L104.47 95.6192ZM80.5872 82.764C81.991 82.7757 83.3648 83.1713 84.5598 83.9081L84.7823 84.0352L84.9094 83.8128L86.4269 81.1988L86.554 80.9764L86.3316 80.8413C84.6612 79.8524 82.7587 79.3234 80.8177 79.3079C79.197 79.2669 77.5883 79.5946 76.1128 80.2662C74.6374 80.9379 73.3338 81.936 72.3005 83.1851C70.5615 85.1911 69.6101 87.7604 69.623 90.4152C69.6187 91.8529 69.8999 93.2771 70.4503 94.6053C71.0007 95.9334 71.8093 97.1391 72.8292 98.1524C73.8491 99.1656 75.0601 99.9663 76.3918 100.508C77.7236 101.05 79.1496 101.322 80.5872 101.308C82.6109 101.292 84.5948 100.744 86.3395 99.7189L86.4666 99.6394V99.4329V99.3693L84.9412 96.7315L84.8061 96.5011L84.5757 96.6521C84.1864 96.9024 83.7772 97.1203 83.3521 97.3036C82.4977 97.6719 81.5729 97.8482 80.6429 97.82C79.6734 97.8376 78.7107 97.6548 77.8152 97.2829C76.9197 96.911 76.1106 96.3581 75.4388 95.6589C74.7459 94.9608 74.2004 94.1305 73.8346 93.2174C73.4688 92.3044 73.2903 91.3271 73.3095 90.3437C73.2723 88.3615 74.0206 86.445 75.3911 85.0125C76.0495 84.2922 76.8528 83.7194 77.7484 83.3319C78.644 82.9443 79.6115 82.7508 80.5872 82.764ZM257.533 83.1613H262.3V101.165L262.713 100.887L265.835 98.686L265.947 98.5986V83.1613H270.714V79.6972H257.533V83.1613ZM180.584 79.3159C179.13 79.292 177.685 79.561 176.336 80.107C174.988 80.653 173.763 81.4647 172.735 82.4939C171.684 83.4786 170.85 84.6705 170.283 85.9943C169.717 87.3182 169.432 88.745 169.445 90.1848C169.397 91.7401 169.695 93.2867 170.318 94.7129C170.94 96.139 171.871 97.4092 173.044 98.4318C175.165 100.321 177.924 101.334 180.764 101.266C183.603 101.198 186.311 100.055 188.339 98.0663C189.393 97.0699 190.228 95.8654 190.791 94.5291C191.355 93.1928 191.634 91.754 191.612 90.3039C191.587 87.3869 190.417 84.5964 188.355 82.5336C186.292 80.4709 183.501 79.301 180.584 79.2761V79.3159ZM185.78 95.6828C185.087 96.3885 184.256 96.945 183.339 97.318C182.422 97.691 181.439 97.8726 180.449 97.8518C179.499 97.851 178.559 97.6609 177.683 97.2926C176.807 96.9243 176.014 96.3851 175.349 95.7066C174.27 94.6673 173.526 93.3296 173.212 91.8648C172.898 90.4001 173.028 88.875 173.586 87.4848C174.144 86.0946 175.105 84.9027 176.344 84.0617C177.584 83.2206 179.047 82.7688 180.545 82.764C181.524 82.7443 182.496 82.9283 183.4 83.3045C184.304 83.6806 185.12 84.2406 185.796 84.9489C186.499 85.6505 187.052 86.4878 187.42 87.4098C187.789 88.3318 187.967 89.3192 187.942 90.3119C187.957 91.3059 187.774 92.2932 187.403 93.2155C187.032 94.1378 186.48 94.9767 185.78 95.6828ZM247.585 79.7926L239.942 87.5947V79.4509L239.537 79.7449L236.415 81.9377L236.303 82.0172V101.149L236.764 100.903L239.887 98.7019L239.99 98.6145V92.2584L240.363 91.893L247.641 100.887L247.784 101.07L247.983 100.942L250.66 99.1309L250.891 98.972L250.708 98.7496L242.961 89.4061L252.154 80.2057L252.591 79.7528H247.689L247.585 79.7926ZM202.823 81.9775L202.711 82.0569V93.3549C202.796 94.5718 202.611 95.7924 202.171 96.9302C202.016 97.2377 201.771 97.4907 201.469 97.6554C201.167 97.82 200.821 97.8886 200.479 97.8518C199.764 97.8181 199.075 97.5719 198.501 97.1447L198.27 96.9937L198.143 97.2241L196.594 99.8937L196.475 100.116L196.681 100.251C197.828 100.94 199.141 101.306 200.479 101.308C201.303 101.335 202.123 101.175 202.877 100.841C203.631 100.507 204.299 100.006 204.833 99.3772C205.407 98.6844 205.815 97.869 206.025 96.9937C206.292 95.8001 206.407 94.5774 206.366 93.3549V79.4509L205.953 79.7449L202.823 81.9775ZM225.188 83.1692L225.268 83.0977L228.144 80.158L228.573 79.7052H216.282V100.903H225.26L225.339 100.831L228.144 97.8915L228.565 97.4545H219.921V90.8919H222.582L222.654 90.8124L225.57 87.8807L226.007 87.4358H219.921V83.1613L225.188 83.1692Z" fill="white"/>
<path d="M277.618 86.7286C276.884 86.7286 276.167 86.511 275.557 86.1033C274.946 85.6956 274.471 85.1161 274.19 84.4381C273.909 83.7601 273.836 83.0141 273.979 82.2944C274.122 81.5746 274.475 80.9135 274.994 80.3946C275.513 79.8757 276.174 79.5223 276.894 79.3792C277.614 79.236 278.36 79.3095 279.038 79.5903C279.716 79.8711 280.295 80.3467 280.703 80.9569C281.111 81.567 281.328 82.2844 281.328 83.0182C281.326 84.0016 280.935 84.9442 280.239 85.6395C279.544 86.3349 278.601 86.7265 277.618 86.7286ZM277.618 79.864C276.989 79.864 276.375 80.0504 275.852 80.3996C275.33 80.7488 274.922 81.2452 274.682 81.8259C274.441 82.4066 274.378 83.0456 274.501 83.6621C274.624 84.2786 274.926 84.8448 275.371 85.2893C275.815 85.7337 276.381 86.0364 276.998 86.159C277.614 86.2817 278.253 86.2187 278.834 85.9782C279.415 85.7377 279.911 85.3303 280.26 84.8077C280.61 84.2851 280.796 83.6706 280.796 83.0421C280.801 82.6232 280.723 82.2076 280.565 81.8196C280.407 81.4316 280.173 81.0791 279.877 80.783C279.581 80.4868 279.228 80.2529 278.84 80.0951C278.452 79.9372 278.037 79.8587 277.618 79.864ZM278.635 85.1555L277.531 83.4711H276.8V85.1555H276.204V80.9048H277.936C278.112 80.8963 278.289 80.9233 278.455 80.9843C278.62 81.0452 278.772 81.1389 278.901 81.2597C279.03 81.3805 279.133 81.5259 279.205 81.6874C279.277 81.849 279.315 82.0232 279.318 82.1999C279.323 82.5063 279.214 82.8036 279.013 83.0352C278.813 83.2667 278.534 83.4162 278.23 83.4552L279.374 85.1555H278.635ZM277.936 81.4292H276.8V82.9308H277.936C278.041 82.9417 278.147 82.9303 278.247 82.8975C278.348 82.8647 278.44 82.8112 278.519 82.7404C278.597 82.6696 278.66 82.5832 278.703 82.4867C278.746 82.3901 278.768 82.2857 278.768 82.18C278.768 82.0744 278.746 81.9699 278.703 81.8734C278.66 81.7768 278.597 81.6904 278.519 81.6196C278.44 81.5489 278.348 81.4953 278.247 81.4625C278.147 81.4297 278.041 81.4184 277.936 81.4292Z" fill="white"/>
</svg>
