<svg width="172" height="157" viewBox="0 0 172 157" fill="none" xmlns="http://www.w3.org/2000/svg">
<path d="M0 124.881V144.038C0 151.817 5.3148 156.775 13.0531 156.775C21.1938 156.775 26.1767 151.547 26.1767 143.513V124.881H19.2864V143.163C19.2864 147.543 17.0762 150.26 13.127 150.26C8.7978 150.26 6.89032 147.136 6.89032 143.513V124.881H0ZM29.5272 125.145V156.463H40.5008C46.5793 156.463 51.7445 153.373 51.7445 147.234C51.7445 140.829 46.1287 139.409 46.1287 139.409C46.1287 139.409 50.2876 138.258 50.2876 132.778C50.2876 127.297 45.0313 125.145 40.5008 125.145H29.5272ZM36.464 131.094H39.8008C42.1125 131.094 43.5848 132.309 43.5848 134.424C43.5848 136.312 42.3292 137.743 39.9728 137.743H36.464V131.094ZM36.464 142.641H40.1448C43.6089 142.641 44.8077 144.416 44.8077 146.534C44.8077 148.999 43.2597 150.444 40.4957 150.444H36.464V142.641ZM54.352 125.135H61.2784V156.461H54.352V125.135ZM129.92 156.461H122.995V125.143H144.736V131.617H129.92V138.79H143.42V144.038H129.92V156.461ZM147.278 125.143V131.617H156.222V156.461H163.228V131.617H172V125.143H147.278ZM69.1904 146.046L63.6864 150.061C63.6864 150.061 65.587 157 75.1176 157C81.4644 157 86.1359 153.303 86.1359 146.805C86.1359 136.336 71.4626 138.556 71.4626 133.171C71.4626 131.753 72.725 130.502 75.0556 130.502C78.7966 130.502 80.2156 134.163 80.2156 134.163L85.7196 130.308C85.7196 130.308 83.5696 124.591 75.3308 124.591C68.5592 124.591 64.9627 128.926 64.9627 133.399C64.9627 144.069 79.2094 141.754 79.2094 147.354C79.2094 149.242 77.7165 150.632 75.3928 150.615C70.7866 150.615 69.187 146.046 69.187 146.046H69.1904ZM104.02 124.577C95.8642 124.577 92.2298 128.995 92.2298 128.995L93.2808 130.044C93.2808 130.044 88.0055 133.783 88.0055 141.816C88.0055 151.056 95.147 156.993 104.058 156.993C114.413 156.993 120.288 149.369 120.288 140.798C120.288 131.659 113.58 124.577 104.02 124.577ZM104.168 131.077C109.698 131.077 113.284 135.295 113.284 140.771C113.284 146.191 109.739 150.524 104.168 150.524C98.6644 150.524 95.0524 146.688 95.0524 141.6C95.0524 136.965 98.1982 134.945 98.1982 134.945L97.0579 133.809C97.0579 133.809 99.471 131.077 104.163 131.077H104.168ZM82.8214 0C47.2518 0 31.8991 31.5922 31.8991 31.5922L36.4176 34.8206C36.4176 34.8206 30.7312 45.6128 30.8878 59.4549C30.8878 87.7123 53.4301 114.331 86.6158 114.331C116.76 114.331 141.664 89.8474 141.664 59.5253C141.663 19.9779 110.928 0 82.8214 0ZM83.1293 9.64055C110.919 9.64055 132.493 31.987 132.493 57.9651C132.493 85.5051 111.736 104.649 87.548 104.649C69.746 104.649 53.6881 91.1226 53.6881 72.5744C53.6881 61.8629 59.3933 54.3952 65.7866 50.4133L66.7222 51.4277C64.973 52.8007 59.9833 60.7902 59.9833 68.6509C59.9833 83.2396 71.4522 93.3504 85.9002 93.3504C104.304 93.3504 116.58 77.6856 116.58 59.4978C116.58 38.3373 97.8611 20.3658 75.3343 20.3658C62.8729 20.3658 52.2983 25.7138 46.2216 30.4337L45.2756 29.5756C53.2168 17.3588 66.9854 9.64055 83.1293 9.64055ZM74.8372 29.8931C89.213 29.8931 103.248 39.3826 106.752 52.854L105.477 53.3345C99.1872 45.0464 88.8793 38.1777 76.7086 38.1777C54.3124 38.1777 42.5494 58.4852 44.2762 75.4458L42.957 75.9281C42.957 75.9281 40.4836 70.4736 40.4836 64.0186C40.4836 45.3107 55.8759 29.8879 74.8372 29.8879V29.8931ZM84.3385 53.3654C91.1445 53.3654 96.5883 58.8696 96.5883 65.4036C96.5883 70.8118 93.1088 74.0161 93.1088 74.0161L97.2368 76.891C97.2368 76.891 93.15 83.2928 84.808 83.2928C76.829 83.2928 69.7718 76.8669 69.7718 68.2253C69.7718 59.3193 77.4482 53.3654 84.3454 53.3654H84.3385Z" fill="white"/>
</svg>
