<svg width="136" height="157" viewBox="0 0 136 157" fill="none" xmlns="http://www.w3.org/2000/svg">
<path fill-rule="evenodd" clip-rule="evenodd" d="M123.094 0H12.295C3.31404 0 0.000292503 3.31151 0.000292503 12.2906V120.628C-0.00404895 121.574 0.0399405 122.519 0.132089 123.46C0.34129 125.421 0.374762 127.32 2.19899 129.481C2.37682 129.69 4.2387 131.079 4.2387 131.079C5.24078 131.57 5.92486 131.932 7.05455 132.385L61.6121 155.235C64.4446 156.532 65.6287 157.038 67.6789 156.998H67.6956C69.7521 157.038 70.9382 156.532 73.7625 155.235L128.335 132.391C129.464 131.938 130.148 131.576 131.15 131.085C131.15 131.085 133.012 129.701 133.19 129.488C135.014 127.326 135.052 125.428 135.257 123.467C135.349 122.525 135.393 121.58 135.389 120.634V12.2906C135.389 3.31151 132.073 0 123.094 0Z" fill="white"/>
<path d="M115.672 108.92L115.647 109.169L115.622 109.445L115.572 109.694L115.499 109.945L115.448 110.168L115.373 110.419L115.275 110.643L115.174 110.852L115.076 111.078L114.951 111.287L114.825 111.496L114.676 111.705L114.551 111.914L114.402 112.09L114.229 112.265L114.08 112.414L113.871 112.589L113.697 112.74L113.488 112.888L113.292 113.012L113.082 113.162L112.856 113.288L112.633 113.388L112.409 113.511L112.16 113.612L111.911 113.712L111.662 113.787L111.413 113.862L111.189 113.938L110.94 113.988L110.716 114.038L110.492 114.086L110.244 114.136L109.995 114.161L109.771 114.186L109.52 114.212L109.248 114.237L108.999 114.262H107.953L107.704 114.237H107.43L107.181 114.212L106.932 114.186L106.658 114.161L106.409 114.111L106.16 114.086L105.911 114.038L105.689 113.938L105.438 113.896L105.189 113.846L104.94 113.77L104.716 113.72L104.467 113.645L104.219 113.57L103.995 113.469L103.746 113.396L103.522 113.321L103.273 113.221L103.047 113.12L102.825 113.02L102.601 112.897L102.375 112.796L102.154 112.683L101.955 112.558L101.731 112.432L101.532 112.307L101.323 112.184L101.124 112.033L100.926 111.883L100.717 111.732L100.518 111.584L100.342 111.433L100.133 111.258L100.283 111.048L100.457 110.873L100.606 110.664L100.781 110.455L100.93 110.279L101.078 110.07L101.254 109.861L101.403 109.685L101.578 109.476L101.727 109.301L101.901 109.092L102.049 108.883L102.2 108.707L102.373 108.498L102.524 108.289L102.698 108.113L102.846 107.904L103.045 108.055L103.269 108.205L103.478 108.356L103.702 108.504L103.901 108.63L104.124 108.78L104.323 108.906L104.549 109.004L104.748 109.129L104.972 109.23L105.196 109.33L105.419 109.43L105.643 109.504L105.869 109.604L106.116 109.679L106.365 109.754L106.589 109.83L106.84 109.88L107.087 109.93L107.336 109.98L107.61 110.005L107.861 110.053H108.108L108.382 110.078H108.93L109.204 110.053L109.453 110.005L109.677 109.955L109.9 109.905L110.11 109.83L110.285 109.729L110.484 109.579L110.633 109.405L110.733 109.196L110.808 108.97L110.833 108.722V108.671L110.808 108.37L110.708 108.122L110.582 107.946L110.409 107.798L110.21 107.647L110.001 107.547L109.777 107.446L109.526 107.346L109.229 107.223L109.053 107.172L108.857 107.122L108.631 107.047L108.407 106.997L108.158 106.922L107.909 106.871L107.635 106.796L107.386 106.748L107.112 106.673L106.865 106.623L106.614 106.547L106.365 106.497L106.116 106.422L105.892 106.347L105.643 106.297L105.419 106.221L105.196 106.148L104.972 106.073L104.698 105.972L104.449 105.872L104.2 105.772L103.974 105.784L103.75 105.661L103.501 105.536L103.292 105.41L103.068 105.285L102.869 105.136L102.67 105.011L102.497 104.86L102.321 104.687L102.147 104.511L101.997 104.336L101.85 104.16L101.725 103.986L101.601 103.777L101.476 103.554L101.375 103.38L101.3 103.171L101.227 102.945L101.152 102.747L101.101 102.496L101.051 102.272L101.026 102.021L101.001 101.772L100.976 101.497V100.922L101.001 100.673L101.026 100.447L101.051 100.196L101.101 99.9725L101.152 99.7467L101.227 99.523L101.277 99.2972L101.375 99.0735L101.476 98.8477L101.576 98.624L101.7 98.3983L101.823 98.1725L101.972 97.9739L102.122 97.7648L102.296 97.5557L102.472 97.3822L102.645 97.1732L102.855 96.9976L103.026 96.8742L103.235 96.7237L103.434 96.5732L103.633 96.4477L103.859 96.3244L104.08 96.224L104.304 96.0986L104.53 95.9982L104.779 95.923L105.026 95.8247L105.252 95.7495L105.451 95.6993L105.675 95.6491L105.901 95.5989L106.147 95.5488L106.371 95.4986L106.62 95.4735L106.871 95.4484L107.118 95.4233L107.367 95.3982H108.438L108.712 95.4233L108.986 95.4484H109.235L109.509 95.4735L109.758 95.5237L110.032 95.5488L110.281 95.5989L110.505 95.6491L110.754 95.6993L111.003 95.7495L111.227 95.7996L111.476 95.8728L111.7 95.9481L111.923 95.9982L112.172 96.0986L112.396 96.1739L112.62 96.2742L112.844 96.3746L113.095 96.4728L113.319 96.5982L113.515 96.6986L113.741 96.824L113.965 96.9474L114.164 97.0728L114.388 97.2233L114.587 97.3488L114.796 97.4993L115.005 97.6477L115.204 97.7983L115.055 98.0073L114.93 98.2059L114.781 98.415L114.63 98.624L114.482 98.8477L114.359 99.0568L114.208 99.2554L114.059 99.4645L113.934 99.6735L113.785 99.8721L113.635 100.081L113.509 100.29L113.363 100.516L113.212 100.725L113.064 100.924L112.938 101.133L112.79 101.331L112.58 101.183L112.359 101.057L112.149 100.932L111.951 100.784L111.727 100.683L111.518 100.558L111.296 100.457L111.087 100.357L110.877 100.202L110.668 100.104L110.444 100.029L110.25 99.9307L109.976 99.8554L109.727 99.7801L109.478 99.707L109.229 99.6568L108.98 99.6066L108.731 99.5564L108.482 99.5314L108.233 99.5063L108.009 99.4812H107.461L107.187 99.5314L106.938 99.5815L106.714 99.6317L106.516 99.73L106.34 99.8303L106.116 100.039L105.967 100.263L105.869 100.489L105.844 100.74V100.79L105.869 101.114L105.993 101.388L106.091 101.538L106.265 101.714L106.49 101.839L106.689 101.963L106.938 102.063L107.212 102.163L107.511 102.264L107.721 102.314L107.919 102.387L108.143 102.437L108.367 102.513L108.616 102.563L108.892 102.638L109.164 102.713L109.438 102.789L109.712 102.839L109.961 102.914L110.235 102.987L110.484 103.037L110.733 103.113L110.982 103.188L111.206 103.263L111.455 103.338L111.679 103.414L111.902 103.487L112.177 103.587L112.425 103.71L112.674 103.811L112.923 103.936L113.149 104.062L113.373 104.185L113.57 104.31L113.779 104.461L113.988 104.586L114.187 104.76L114.396 104.936L114.568 105.145L114.743 105.318L114.892 105.527L115.043 105.753L115.166 105.952L115.292 106.177L115.392 106.376L115.465 106.602L115.54 106.828L115.589 107.051L115.639 107.302L115.689 107.551L115.714 107.802L115.739 108.076V108.676L115.672 108.92ZM98.2124 113.917H83.947V95.7286H98.3379V99.8512H88.7021V102.826H97.3651V106.698H88.7021V109.798H98.4613V113.921L98.2124 113.917ZM80.0224 113.917H75.466V103.165L75.3425 103.363L75.194 103.591L75.0685 103.79L74.9199 103.999L74.7944 104.223L74.6438 104.432L74.5204 104.641L74.3969 104.867L74.2484 105.076L74.1229 105.274L73.9723 105.483L73.8488 105.709L73.6982 105.918L73.5748 106.127L73.4493 106.353L73.3007 106.562L73.1773 106.771L73.0267 106.995L72.9033 107.204L72.7526 107.413L72.6292 107.639L72.5037 107.848L72.3551 108.057L72.2317 108.283L72.0811 108.492L71.9577 108.701L71.807 108.91L71.6815 109.133L71.5581 109.343L71.4096 109.552L71.284 109.777L71.1355 109.976L71.01 110.185L70.8615 110.411L70.7359 110.62H70.6376L70.487 110.394L70.3636 110.185L70.2129 109.959L70.0895 109.75L69.941 109.524L69.8154 109.315L69.6669 109.09L69.5414 108.881L69.3908 108.657L69.2673 108.448L69.1188 108.222L68.9954 108.013L68.8448 107.789L68.7192 107.58L68.5707 107.354L68.4452 107.145L68.2966 106.922L68.1481 106.713L68.0226 106.487L67.8741 106.278L67.7485 106.054L67.6 105.845L67.4745 105.619L67.326 105.41L67.2004 105.184L67.0519 104.986L66.9285 104.76L66.7779 104.551L66.6544 104.325L66.5038 104.116L66.3783 103.89L66.2297 103.692L66.1042 103.464L65.9578 103.255V113.961H61.2257V95.7725H66.3302L66.4536 95.9711L66.5791 96.1969L66.7276 96.3955L66.8532 96.6192L66.9787 96.8282L67.1021 97.054L67.2255 97.2526L67.3762 97.4763L67.4996 97.6854L67.6251 97.8944L67.7485 98.116L67.8741 98.3251L68.0226 98.5509L68.1481 98.7495L68.2715 98.9732L68.395 99.1822L68.5456 99.3913L68.6711 99.615L68.7945 99.824L68.9201 100.048L69.0435 100.257L69.1941 100.48L69.3175 100.69L69.441 100.913L69.5665 101.112L69.6899 101.321L69.8405 101.545L69.9661 101.754L70.0895 101.979L70.2129 102.189L70.3385 102.412L70.487 102.621L70.6125 102.845L70.7359 103.044L70.8615 102.845L70.987 102.621L71.1355 102.412L71.2589 102.189L71.3845 101.979L71.5079 101.754L71.6564 101.545L71.7819 101.321L71.9075 101.112L72.0309 100.913L72.1815 100.69L72.3049 100.48L72.4305 100.257L72.5539 100.048L72.7024 99.824L72.8279 99.615L72.9535 99.3913L73.0769 99.1822L73.2024 98.9732L73.3509 98.7495L73.4744 98.5509L73.5999 98.3251L73.7233 98.116L73.8739 97.8944L73.9974 97.6854L74.1229 97.4763L74.2484 97.2526L74.3969 97.054L74.5204 96.8282L74.6438 96.6192L74.7693 96.3955L74.9199 96.1969L75.0434 95.9711L75.1689 95.7725H80.2713V113.961L80.0224 113.917ZM51.1359 106.424L51.0606 106.198L50.9623 105.947L50.8618 105.724L50.7886 105.498L50.6903 105.272L50.5899 105.021L50.5146 104.795L50.4183 104.572L50.32 104.346L50.2447 104.12L50.1443 103.869L50.0711 103.646L49.9706 103.418L49.8702 103.194L49.797 102.968L49.6966 102.717L49.5983 102.492L49.523 102.268L49.4225 102.042L49.3242 101.791L49.2489 101.566L49.1485 101.34L49.0502 101.566L48.9748 101.791L48.8744 102.042L48.7761 102.268L48.7008 102.492L48.6025 102.717L48.5021 102.968L48.4037 103.194L48.3284 103.418L48.228 103.646L48.1276 103.869L48.0544 104.12L47.9539 104.346L47.8535 104.572L47.7803 104.795L47.6799 105.021L47.5816 105.272L47.4812 105.498L47.4079 105.724L47.3075 105.947L47.2071 106.198L47.1318 106.424L47.0335 106.65H51.2405L51.1359 106.424ZM58.9558 113.921H54.0752L53.9748 113.695L53.8994 113.469L53.8011 113.246L53.7007 112.995L53.6275 112.771L53.5271 112.547L53.4266 112.322L53.3471 112.098L53.2467 111.872L53.1463 111.648L53.0731 111.423L52.9727 111.174L52.8723 110.948L52.799 110.722L52.6986 110.499H45.5607L45.4603 110.722L45.3975 110.948L45.2971 111.174L45.1883 111.429L45.1151 111.655L45.0147 111.878L44.9143 112.104L44.8389 112.328L44.7406 112.554L44.6402 112.777L44.567 113.001L44.4666 113.252L44.3682 113.476L44.2929 113.701L44.1925 113.927H39.1717L39.27 113.701L39.3683 113.476L39.4688 113.252L39.5671 113.001L39.6424 112.777L39.7428 112.554L39.8432 112.328L39.9416 112.104L40.042 111.878L40.1424 111.63L40.2407 111.404L40.3411 111.18L40.4143 110.954L40.5148 110.729L40.6131 110.505L40.7135 110.254L40.8139 110.03L40.9122 109.805L41.0127 109.579L41.1131 109.355L41.1884 109.129L41.2867 108.881L41.385 108.655L41.4855 108.431L41.5838 108.205L41.6842 107.979L41.7846 107.756L41.8829 107.505L41.9583 107.281L42.0587 107.055L42.1591 106.832L42.2574 106.606L42.3578 106.38L42.4562 106.131L42.5566 105.906L42.6549 105.682L42.7302 105.456L42.8306 105.232L42.9289 105.007L43.0294 104.756L43.1298 104.532L43.2281 104.306L43.3285 104.083L43.4268 103.857L43.5022 103.631L43.6026 103.409L43.7009 103.159L43.8013 102.935L43.8996 102.709L44.0001 102.483L44.1005 102.26L44.1988 102.034L44.2741 101.785L44.3745 101.559L44.4728 101.333L44.5733 101.11L44.6716 100.884L44.772 100.66L44.8703 100.409L44.9707 100.186L45.0461 99.9599L45.1465 99.7341L45.2448 99.5105L45.3452 99.2847L45.4435 99.0359L45.544 98.8101L45.6423 98.5864L45.7427 98.3606L45.8159 98.1348L45.9163 97.9111L46.0168 97.6603L46.1172 97.4366L46.2155 97.2108L46.3159 96.985L46.4163 96.7613L46.5146 96.5355L46.59 96.2868L46.6883 96.061L46.7887 95.8373L46.887 95.6115H51.4894L51.5899 95.8373L51.6903 96.061L51.7886 96.2868L51.8869 96.5355L51.9622 96.7613L52.0606 96.985L52.161 97.2108L52.2614 97.4366L52.3618 97.6603L52.4601 97.9111L52.5606 98.1348L52.661 98.3606L52.7342 98.5864L52.8346 98.8101L52.9329 99.0359L53.0333 99.2847L53.1379 99.5125L53.2384 99.7362L53.3388 99.962L53.4371 100.188L53.5124 100.411L53.6128 100.662L53.7112 100.886L53.8116 101.112L53.9099 101.336L54.0103 101.561L54.1086 101.787L54.2091 102.036L54.2844 102.262L54.3827 102.485L54.4831 102.711L54.5835 102.937L54.6839 103.161L54.7823 103.412L54.8827 103.633L54.981 103.859L55.0563 104.085L55.1546 104.308L55.2551 104.534L55.3534 104.758L55.4538 105.009L55.5542 105.235L55.6546 105.458L55.753 105.684L55.8283 105.908L55.9266 106.133L56.027 106.382L56.1253 106.608L56.2258 106.834L56.3262 107.058L56.4245 107.283L56.5249 107.507L56.6002 107.758L56.6985 107.982L56.799 108.207L56.8994 108.433L56.9977 108.657L57.0981 108.883L57.1964 109.131L57.2969 109.357L57.3701 109.581L57.4705 109.807L57.5709 110.032L57.6692 110.256L57.7697 110.507L57.8701 110.731L57.9684 110.956L58.0688 111.182L58.1441 111.406L58.2425 111.632L58.3408 111.881L58.4412 112.106L58.5416 112.33L58.6399 112.556L58.7403 112.779L58.8408 113.003L58.9161 113.254L59.0144 113.478L59.1148 113.704L59.2131 113.929L58.9558 113.921ZM37.1445 111.598L36.9353 111.747L36.7617 111.872L36.563 112.023L36.3642 112.148L36.155 112.297L35.9458 112.422L35.7471 112.547L35.5232 112.673L35.2994 112.796L35.0755 112.922L34.8496 113.02L34.6258 113.145L34.3789 113.246L34.1551 113.346L33.904 113.444L33.6802 113.545L33.4563 113.62L33.2325 113.695L33.0086 113.77L32.7597 113.846L32.5358 113.921L32.2869 113.971L32.063 114.021L31.8141 114.069L31.5631 114.12L31.3162 114.145L31.0421 114.17L30.7932 114.195L30.5191 114.22L30.2702 114.245L29.9961 114.27H28.925L28.6761 114.245L28.402 114.22L28.1531 114.195L27.9062 114.17L27.6552 114.145L27.4062 114.094L27.1573 114.044L26.9355 113.996L26.6845 113.946L26.4606 113.871L26.2117 113.821L25.9879 113.745L25.764 113.645L25.5402 113.57L25.2912 113.469L25.0674 113.371L24.8435 113.271L24.6197 113.17L24.3937 113.045L24.1845 112.922L23.9607 112.796L23.762 112.673L23.5528 112.547L23.3436 112.397L23.1448 112.248L22.9356 112.098L22.762 111.947L22.5883 111.797L22.4126 111.623L22.239 111.473L22.0632 111.297L21.8896 111.124L21.7411 110.948L21.5925 110.739L21.4419 110.566L21.3164 110.356L21.1679 110.147L21.0423 109.938L20.9189 109.729L20.8624 109.547L20.7369 109.338L20.6386 109.129L20.5382 108.906L20.4377 108.68L20.3394 108.456L20.2641 108.247L20.1637 108.021L20.1135 107.798L20.0403 107.572L19.9901 107.323L19.9147 107.097L19.875 106.851L19.8415 106.621L19.7913 106.37L19.7662 106.146L19.7411 105.895L19.716 105.646L19.693 105.395V104.572L19.716 104.296V104.047L19.7411 103.796L19.7662 103.522L19.8164 103.274L19.8415 103.023L19.8896 102.799L19.965 102.548L20.0152 102.299L20.0884 102.074L20.1637 101.825L20.239 101.599L20.3394 101.348L20.4377 101.124L20.5382 100.899L20.6386 100.675L20.7369 100.449L20.8624 100.223L20.9859 100.025L21.1093 99.8157L21.2348 99.6171L21.3603 99.408L21.5089 99.199L21.6595 99.0003L21.808 98.7913L21.9565 98.6157L22.1302 98.4422L22.2808 98.2665L22.4544 98.0909L22.6302 97.9174L22.8038 97.7669L23.013 97.5913L23.1867 97.4429L23.3959 97.2923L23.6051 97.1669L23.8143 97.0164L24.0235 96.893L24.2201 96.7676L24.4439 96.6421L24.6699 96.5167L24.8937 96.3934L25.1176 96.293L25.3414 96.1927L25.5904 96.0672L25.7996 95.992L26.0485 95.9167L26.2724 95.8185L26.4962 95.7683L26.7201 95.693L26.9711 95.6428L27.1928 95.5676L27.4418 95.5174L27.6907 95.4923L27.9418 95.4421L28.1907 95.4171L28.4376 95.392L28.6865 95.3669L28.9376 95.3418H30.0066L30.2807 95.3669L30.5547 95.392H30.7534L31.0024 95.4171L31.2765 95.4672L31.5003 95.4923L31.7492 95.5425L31.9982 95.5927L32.222 95.6428L32.4459 95.693L32.6697 95.7432L32.8957 95.8185L33.1195 95.8665L33.3183 95.9418L33.5421 96.0171L33.7659 96.1174L33.9898 96.2178L34.2157 96.3181L34.4396 96.4415L34.6613 96.5418L34.8705 96.6672L35.0944 96.7927L35.3036 96.916L35.5274 97.0415L35.7262 97.192L35.9354 97.3174L36.1446 97.4679L36.3433 97.6164L36.542 97.792L36.7512 97.9425L36.6027 98.1411L36.4291 98.3167L36.2784 98.5258L36.1048 98.7244L35.9542 98.9334L35.8056 99.107L35.6299 99.316L35.4835 99.5251L35.3329 99.7007L35.1592 99.8993L35.0086 100.108L34.835 100.307L34.6843 100.483L34.5358 100.692L34.3622 100.89L34.2136 101.099L34.0379 101.275L33.8894 101.474L33.6802 101.323L33.4814 101.149L33.2827 101.024L33.0735 100.874L32.8747 100.75L32.6655 100.625L32.4668 100.499L32.2179 100.349L32.0191 100.248L31.8204 100.15L31.6112 100.075L31.3873 99.9997L31.1719 99.9307L30.9459 99.8805L30.697 99.8303L30.448 99.7801L30.1991 99.7551L29.9166 99.7216L29.6405 99.6986H29.1196L28.8706 99.7216L28.6447 99.7467L28.3958 99.7969L28.1719 99.847L27.9481 99.9223L27.7242 99.9976L27.5004 100.098L27.2765 100.196L27.0778 100.322L26.879 100.447L26.6698 100.572L26.4962 100.723L26.3205 100.871L26.1468 101.022L25.9983 101.198L25.8247 101.371L25.674 101.58L25.5506 101.756L25.4251 101.954L25.3017 102.18L25.1761 102.379L25.0778 102.605L25.0025 102.83L24.9042 103.054L24.8289 103.305L24.7787 103.554L24.7285 103.777L24.6783 104.053L24.6531 104.302L24.6301 104.553V105.128L24.6531 105.377L24.6783 105.602L24.7034 105.851L24.7536 106.077L24.8038 106.303L24.854 106.526L24.9293 106.752L25.0025 106.951L25.1029 107.202L25.2013 107.425L25.3247 107.651L25.4502 107.86L25.5757 108.069L25.7243 108.278L25.8749 108.454L26.0485 108.628L26.1971 108.803L26.3707 108.954L26.5799 109.102L26.7786 109.253L26.9878 109.378L27.1866 109.504L27.4104 109.602L27.6343 109.702L27.8602 109.802L28.1091 109.878L28.356 109.953L28.607 110.003L28.856 110.053L29.1049 110.078L29.3769 110.104H29.9501L30.2242 110.078L30.4982 110.053L30.7472 110.028L30.9961 109.978L31.2451 109.928L31.494 109.853L31.7179 109.802L31.9417 109.702L32.1509 109.602L32.3748 109.504L32.5484 109.403L32.7471 109.278V106.974H29.1029V103.328H37.3182V111.448L37.1445 111.598Z" fill="black"/>
<path d="M29.1363 54.5647H39.9269V46.2232H29.1363V29.2037H40.3579V20.8643H19.9754V81.0589H40.5273V72.7195H29.1363V54.5647Z" fill="black"/>
<path d="M106.424 56.3794V69.9683C106.424 72.3767 105.308 73.4951 102.999 73.4951H101.286C98.8881 73.4951 97.773 72.3767 97.773 69.9683V31.957C97.773 29.5486 98.8881 28.4323 101.286 28.4323H102.825C105.139 28.4323 106.252 29.5486 106.252 31.957V43.7396H115.248V31.4406C115.248 23.9605 111.651 20.3479 104.202 20.3479H99.7437C92.2941 20.3479 88.61 24.0441 88.61 31.5263V70.3969C88.61 77.8791 92.2941 81.5753 99.7437 81.5753H104.283C111.733 81.5753 115.415 77.8791 115.415 70.3969V56.3794H106.424Z" fill="black"/>
<path d="M74.604 81.0589H83.767V20.8643H74.604V81.0589Z" fill="black"/>
<path d="M61.3072 47.6072C61.3072 50.0156 60.1943 51.1341 57.8826 51.1341H54.117V28.9465H57.8826C60.1943 28.9465 61.3072 30.065 61.3072 32.4713V47.6072ZM59.3366 20.8643H44.9519V81.0589H54.1149V59.2163H59.3449C66.7967 59.2163 70.4786 55.5201 70.4786 48.0379V32.0427C70.4786 24.5604 66.7967 20.8643 59.3449 20.8643" fill="black"/>
<path fill-rule="evenodd" clip-rule="evenodd" d="M41.5901 135.488H94.0451L67.2674 144.312L41.5901 135.488Z" fill="black"/>
</svg>
