<svg width="410" height="100" viewBox="0 0 410 100" fill="none" xmlns="http://www.w3.org/2000/svg">
<path d="M392.497 80.4329H393.539C393.539 82.4748 394.352 84.4331 395.8 85.877C397.247 87.3209 399.21 88.1321 401.257 88.1321C403.304 88.1321 405.267 87.3209 406.714 85.877C408.161 84.4331 408.974 82.4748 408.974 80.4329H410C410.002 81.5801 409.778 82.7165 409.339 83.7771C408.901 84.8377 408.258 85.8018 407.446 86.6142C406.634 87.4265 405.669 88.0713 404.607 88.5115C403.545 88.9518 402.407 89.179 401.257 89.1801C398.934 89.1735 396.708 88.2496 395.067 86.6103C393.425 84.9711 392.501 82.75 392.497 80.4329ZM408.974 80.4329C408.979 79.4242 408.782 78.4247 408.396 77.4925C408.01 76.5604 407.441 75.7141 406.724 75.003C406.007 74.285 405.155 73.715 404.217 73.3256C403.279 72.9362 402.273 72.7351 401.257 72.7337V71.7104C403.576 71.7104 405.799 72.6294 407.439 74.2652C409.079 75.901 410 78.1195 410 80.4329H408.974ZM392.497 80.4329C392.506 78.1194 393.432 75.9034 395.073 74.269C396.715 72.6346 398.938 71.7148 401.257 71.7104V72.7337C399.212 72.7402 397.253 73.5535 395.807 74.9959C394.361 76.4384 393.546 78.3929 393.539 80.4329H392.497Z" fill="white"/>
<path d="M132.514 27.1741H147.875V85.6234H132.514V27.1741Z" fill="white"/>
<path d="M357.267 60.7023V85.4007L341.807 85.3429V25.3669L369.642 49.2979V27.1741H384.97V87.7855L357.267 60.7023Z" fill="white"/>
<path d="M55.2556 56.2379C55.2447 50.4781 56.8939 44.8367 60.0068 39.9859C63.1197 35.135 67.5649 31.2793 72.8128 28.8782C78.0607 26.4771 83.8899 25.6318 89.6059 26.443C95.3218 27.2543 100.683 29.6879 105.052 33.4539L95.1257 44.7262C92.9262 42.8827 90.2442 41.7051 87.3959 41.3322C84.5476 40.9594 81.6518 41.4069 79.05 42.6219C76.4483 43.8369 74.249 45.7688 72.7117 48.1897C71.1743 50.6107 70.363 53.4197 70.3733 56.2856C70.3836 59.1514 71.2152 61.9546 72.77 64.3644C74.3248 66.7743 76.5379 68.6903 79.1483 69.8867C81.7588 71.083 84.6577 71.5096 87.5033 71.1164C90.3488 70.7231 93.0223 69.5262 95.2084 67.667L105.135 78.9558C100.769 82.7332 95.407 85.1787 89.6872 86.0008C83.9675 86.823 78.1315 85.9871 72.8746 83.5928C67.6178 81.1986 63.1619 77.3468 60.038 72.4968C56.9142 67.6467 55.2541 62.0029 55.2556 56.2379Z" fill="white"/>
<path d="M177.124 99.0247L148.065 21.9669H123.771V85.8214H107.864V21.9669H72.6678L80.832 6.60156H159.414L177.124 52.8131L194.851 6.60156H270.951L279.347 21.9504H206.208L177.124 99.0247Z" fill="white"/>
<path d="M226.225 85.4005V72.4943H236.78C238.492 72.4943 241.743 72.3623 242.57 69.6473C244.266 63.9947 226.854 54.7936 226.854 40.7651C226.854 30.1282 234.572 26.9512 239.816 26.9512H255.847V39.6098H245.97C245.97 39.6098 243.133 39.6098 242.355 40.7404C238.062 46.8634 258.237 55.8086 258.237 72.2467C258.237 80.8371 250.851 85.3758 243.489 85.3758H226.225" fill="white"/>
<path d="M206.431 26.9512H221.808V85.4005H206.431V26.9512Z" fill="white"/>
<path d="M260.735 26.9512H276.113V85.4005H260.735V26.9512Z" fill="white"/>
<path d="M403.531 84.8971C403.337 84.1386 403.226 83.361 403.201 82.5783C403.052 81.5551 402.655 81.1094 401.546 81.1094H399.396V84.8971H397.278V75.1927H402.514C402.881 75.1677 403.248 75.2185 403.594 75.3417C403.94 75.465 404.257 75.6581 404.525 75.909C404.793 76.1599 405.006 76.4633 405.151 76.8001C405.296 77.1368 405.37 77.4998 405.368 77.8664C405.42 78.3914 405.296 78.9188 405.016 79.3665C404.736 79.8142 404.316 80.1572 403.821 80.342C404.88 80.6061 405.178 81.6293 405.235 82.6113C405.21 83.393 405.348 84.1714 405.641 84.8971H403.498H403.531ZM399.362 79.5993H401.712C402.663 79.5993 403.184 79.1867 403.184 78.2047C403.184 77.2227 402.663 76.8679 401.712 76.8679H399.362V79.5993Z" fill="white"/>
<path d="M43.5841 85.6234L39.5061 74.7472H20.4313L16.3533 85.6234H0L29.977 0L59.954 85.6234H43.5841ZM25.0966 59.126H34.1956L29.6461 44.1733L25.0966 59.126Z" fill="white"/>
<path d="M278.909 56.2213C278.91 50.268 280.681 44.449 283.997 39.4997C287.314 34.5505 292.027 30.6933 297.54 28.4159C303.054 26.1385 309.12 25.543 314.973 26.7048C320.826 27.8666 326.202 30.7336 330.421 34.9431C334.641 39.1527 337.515 44.5158 338.679 50.3546C339.844 56.1933 339.247 62.2455 336.964 67.7458C334.681 73.2462 330.815 77.9478 325.854 81.2562C320.893 84.5647 315.06 86.3314 309.092 86.333C301.087 86.333 293.41 83.1606 287.749 77.5135C282.089 71.8664 278.909 64.2074 278.909 56.2213ZM294.104 56.2213C294.107 59.1759 294.988 62.0634 296.636 64.5186C298.284 66.9739 300.624 68.8868 303.361 70.0156C306.098 71.1444 309.109 71.4385 312.014 70.8607C314.918 70.2828 317.586 68.859 319.68 66.7692C321.773 64.6793 323.199 62.0172 323.777 59.1193C324.354 56.2213 324.058 53.2176 322.925 50.4877C321.792 47.7577 319.873 45.4241 317.411 43.7817C314.949 42.1394 312.054 41.2619 309.092 41.2603C305.12 41.2603 301.31 42.8334 298.5 45.634C295.689 48.4346 294.108 52.2337 294.104 56.1965" fill="white"/>
</svg>
