<?xml version="1.0" encoding="utf-8"?>
<!-- Generator: Adobe Illustrator 25.2.1, SVG Export Plug-In . SVG Version: 6.00 Build 0)  -->
<svg version="1.1" id="Camada_1" xmlns="http://www.w3.org/2000/svg" xmlns:xlink="http://www.w3.org/1999/xlink" x="0px" y="0px"
	 viewBox="0 0 128 128" style="enable-background:new 0 0 128 128;" xml:space="preserve">
<style type="text/css">
	.st0{fill:#FFFFFF;}
</style>
<path class="st0" d="M25.4,37.4c6.7,0,12.1-5.4,12.1-12.1s-5.5-12-12.1-12s-12.1,5.4-12.1,12.1S18.7,37.4,25.4,37.4z M25.4,18.1
	c4,0,7.2,3.2,7.2,7.2s-3.2,7.2-7.2,7.2s-7.2-3.2-7.2-7.2S21.4,18.1,25.4,18.1z M25.4,76.1c6.7,0,12.1-5.4,12.1-12.1
	S32,51.9,25.4,51.9S13.3,57.3,13.3,64S18.7,76.1,25.4,76.1z M25.4,56.8c4,0,7.2,3.2,7.2,7.2s-3.2,7.2-7.2,7.2S18.1,68,18.1,64
	S21.4,56.8,25.4,56.8z M25.4,114.7c6.7,0,12.1-5.4,12.1-12.1s-5.4-12.1-12.1-12.1S13.3,96,13.3,102.6
	C13.3,109.3,18.7,114.7,25.4,114.7z M25.4,95.4c4,0,7.2,3.2,7.2,7.2s-3.2,7.2-7.2,7.2s-7.2-3.2-7.2-7.2S21.4,95.4,25.4,95.4z
	 M112.3,23H49.5c-1.3,0-2.4,1.1-2.4,2.4s1.1,2.4,2.4,2.4h62.8c1.3,0,2.4-1.1,2.4-2.4S113.6,23,112.3,23z M112.3,61.6H49.5
	c-1.3,0-2.4,1.1-2.4,2.4s1.1,2.4,2.4,2.4h62.8c1.3,0,2.4-1.1,2.4-2.4S113.6,61.6,112.3,61.6z M112.3,100.2H49.5
	c-1.3,0-2.4,1.1-2.4,2.4s1.1,2.4,2.4,2.4h62.8c1.3,0,2.4-1.1,2.4-2.4C114.7,101.3,113.6,100.2,112.3,100.2z"/>
</svg>
